<svg width="43" height="23" viewBox="0 0 43 23" fill="none" xmlns="http://www.w3.org/2000/svg">
<path d="M39.3505 7.69363V3.96033L42.2722 5.74582L39.3505 7.69363Z" fill="white" stroke="white" stroke-width="0.64927" stroke-linejoin="round"/>
<path d="M39.3505 16.6271H33.9547L30.9571 11.169L27.9594 5.711H22.1639" stroke="white" stroke-width="1.62318" stroke-linejoin="round"/>
<path fill-rule="evenodd" clip-rule="evenodd" d="M29.4755 12.1806L29.0597 12.9377L27.4792 15.8155H22.1639V17.4386H27.9594C28.2556 17.4386 28.5282 17.2773 28.6708 17.0177L30.4015 13.8665L29.4755 12.1806ZM32.4385 10.1575L34.4349 6.52257H39.3505V4.8994H33.9547C33.6586 4.8994 33.3859 5.06071 33.2434 5.32029L31.5126 8.47159L32.4385 10.1575Z" fill="white"/>
<path d="M9.32933 19.1756H2.6853V17.3428V16.1973H23.5338V20.703H22.2355H18.3408C17.4753 20.7793 15.6526 20.9321 15.286 20.9321C12.6895 23.5286 9.32933 21.4666 9.32933 19.1756Z" fill="black"/>
<path d="M13.1478 1.68733H18.3408H23.5338V3.6729V4.81842H7.34379L6.19827 4.40295V3.6729H5.6637V1.68733H9.86394L10.093 1.00002H12.8423L13.1478 1.68733Z" fill="#8A8A8A"/>
<path d="M9.32926 19.2157L3.59654 19.2269L3.59657 17.3177H1.3819V17.6995H1.00006L1 15.8855H1.38184L1.3819 16.2485H1.99284L3.73393 16.2373H4.21262V12.9196L4.67083 12.1898V11.3498H4.21262C3.90715 11.3498 3.90715 9.82243 4.21262 9.82243C4.5181 9.82243 4.67083 9.74606 4.67083 9.74606L5.28178 8.52417L7.34371 4.8585L6.19819 4.44304V3.71298H5.66362C5.25272 2.82354 5.25272 2.51977 5.66362 1.72741H9.86386L10.093 1.0401H12.8422L13.1477 1.72741H23.5338L23.5337 16.2373V20.7431H18.3407C17.4752 20.8194 15.6525 20.9722 15.286 20.9722C12.6895 23.5687 9.32926 21.5067 9.32926 19.2157Z" fill="white"/>
<path d="M3.59654 19.2269L3.27191 19.2269L3.2719 19.5521L3.59718 19.5515L3.59654 19.2269ZM9.32926 19.2157H9.65389V18.8904L9.32862 18.8911L9.32926 19.2157ZM15.286 20.9722V20.6475H15.1515L15.0564 20.7426L15.286 20.9722ZM18.3407 20.7431V20.4184H18.3264L18.3122 20.4197L18.3407 20.7431ZM23.5337 20.7431V21.0677H23.8584V20.7431H23.5337ZM23.5337 16.2373L23.2091 16.2373V16.2373H23.5337ZM3.59657 17.3177L3.92121 17.3177C3.92121 17.2316 3.88701 17.149 3.82612 17.0881C3.76524 17.0272 3.68267 16.993 3.59657 16.993V17.3177ZM4.67083 9.74606L4.81601 10.0364L4.9128 9.98803L4.96119 9.89124L4.67083 9.74606ZM4.67083 11.3498H4.99547V11.0252H4.67083V11.3498ZM4.67083 12.1898L4.94576 12.3625L4.99547 12.2833V12.1898H4.67083ZM4.21262 12.9196L3.93769 12.7469L3.88799 12.8261V12.9196H4.21262ZM4.21262 16.2373V16.562H4.53726V16.2373H4.21262ZM3.73393 16.2373L3.73393 15.9127L3.73185 15.9127L3.73393 16.2373ZM1.99284 16.2485L1.99284 16.5732L1.99493 16.5732L1.99284 16.2485ZM1.3819 16.2485L1.05726 16.2486L1.05731 16.5732H1.3819V16.2485ZM1.38184 15.8855L1.70648 15.8854L1.70642 15.5608H1.38184V15.8855ZM1 15.8855V15.5608H0.675355L0.675365 15.8855L1 15.8855ZM1.00006 17.6995L0.675422 17.6995L0.675432 18.0242H1.00006V17.6995ZM1.3819 17.6995V18.0242H1.70653V17.6995H1.3819ZM1.3819 17.3177V16.993H1.05726V17.3177H1.3819ZM5.28178 8.52417L4.99883 8.36502L4.99495 8.37191L4.99141 8.37899L5.28178 8.52417ZM7.34371 4.8585L7.62666 5.01766L7.8144 4.68389L7.4544 4.55332L7.34371 4.8585ZM13.1477 1.72741L12.851 1.85926L12.9367 2.05205H13.1477V1.72741ZM12.8422 1.0401L13.1389 0.908253L13.0532 0.715465H12.8422V1.0401ZM10.093 1.0401V0.715465H9.85898L9.78499 0.937441L10.093 1.0401ZM9.86386 1.72741V2.05205H10.0978L10.1718 1.83007L9.86386 1.72741ZM5.66362 1.72741V1.40278H5.46627L5.37543 1.57796L5.66362 1.72741ZM5.66362 3.71298L5.36891 3.84913L5.45599 4.03762H5.66362V3.71298ZM6.19819 3.71298H6.52283V3.38835H6.19819V3.71298ZM6.19819 4.44304H5.87356V4.67062L6.08751 4.74822L6.19819 4.44304ZM23.5338 1.72741L23.8584 1.72741L23.8584 1.40278H23.5338V1.72741ZM3.59718 19.5515L9.32989 19.5403L9.32862 18.8911L3.59591 18.9022L3.59718 19.5515ZM9.00462 19.2157C9.00462 20.5189 9.95022 21.7105 11.2108 22.2272C12.4961 22.7539 14.1244 22.5928 15.5155 21.2017L15.0564 20.7426C13.851 21.948 12.501 22.0542 11.457 21.6264C10.3884 21.1884 9.65389 20.2035 9.65389 19.2157H9.00462ZM15.286 21.2968C15.6711 21.2968 17.5147 21.1418 18.3692 21.0664L18.3122 20.4197C17.4357 20.497 15.634 20.6475 15.286 20.6475V21.2968ZM23.8584 20.7431V16.2373H23.2091V20.7431H23.8584ZM3.27194 17.3177L3.27191 19.2269L3.92118 19.2269L3.92121 17.3177L3.27194 17.3177ZM4.67083 9.74606C4.52565 9.4557 4.52576 9.45564 4.52588 9.45559C4.52591 9.45557 4.52603 9.45551 4.5261 9.45548C4.52625 9.4554 4.52639 9.45533 4.52653 9.45526C4.52682 9.45512 4.5271 9.45498 4.52736 9.45485C4.5279 9.45459 4.5284 9.45434 4.52887 9.45411C4.5298 9.45366 4.5306 9.45328 4.53126 9.45297C4.53257 9.45236 4.53334 9.45202 4.53355 9.45193C4.53398 9.45174 4.5322 9.45253 4.52821 9.45403C4.52024 9.45702 4.50336 9.46285 4.47755 9.4693C4.42613 9.48216 4.33801 9.49779 4.21262 9.49779V10.1471C4.39271 10.1471 4.53369 10.1245 4.63501 10.0992C4.68557 10.0865 4.72597 10.0733 4.75618 10.062C4.77128 10.0563 4.78382 10.0511 4.79379 10.0468C4.79878 10.0446 4.80312 10.0426 4.80683 10.0409C4.80868 10.04 4.81037 10.0392 4.8119 10.0384C4.81267 10.0381 4.81339 10.0377 4.81408 10.0374C4.81442 10.0372 4.81475 10.0371 4.81507 10.0369C4.81524 10.0368 4.81539 10.0367 4.81555 10.0367C4.81563 10.0366 4.81574 10.0366 4.81578 10.0365C4.8159 10.0365 4.81601 10.0364 4.67083 9.74606ZM4.21262 9.49779C4.02116 9.49779 3.90187 9.62103 3.84465 9.70447C3.78607 9.78991 3.75047 9.8899 3.72712 9.97743C3.67921 10.1571 3.65888 10.3784 3.65888 10.5861C3.65888 10.7938 3.67921 11.0151 3.72712 11.1948C3.75047 11.2823 3.78607 11.3823 3.84465 11.4678C3.90187 11.5512 4.02116 11.6744 4.21262 11.6744V11.0252C4.26546 11.0252 4.30951 11.0428 4.33956 11.0629C4.36654 11.081 4.37858 11.0983 4.38013 11.1006C4.38144 11.1025 4.36931 11.0831 4.35447 11.0275C4.32602 10.9208 4.30815 10.7602 4.30815 10.5861C4.30815 10.412 4.32602 10.2514 4.35447 10.1447C4.36931 10.0891 4.38144 10.0697 4.38013 10.0716C4.37858 10.0739 4.36654 10.0913 4.33956 10.1093C4.30951 10.1294 4.26546 10.1471 4.21262 10.1471V9.49779ZM4.21262 11.6744H4.67083V11.0252H4.21262V11.6744ZM4.3462 11.3498V12.1898H4.99547V11.3498H4.3462ZM4.3959 12.0172L3.93769 12.7469L4.48755 13.0922L4.94576 12.3625L4.3959 12.0172ZM4.21262 15.9127H3.73393V16.562H4.21262V15.9127ZM3.73185 15.9127L1.99076 15.9239L1.99493 16.5732L3.73602 16.562L3.73185 15.9127ZM1.99284 15.9239H1.3819V16.5732H1.99284V15.9239ZM1.70653 16.2485L1.70648 15.8854L1.05721 15.8855L1.05726 16.2486L1.70653 16.2485ZM1.38184 15.5608H1V16.2101H1.38184V15.5608ZM0.675365 15.8855L0.675422 17.6995L1.32469 17.6995L1.32463 15.8854L0.675365 15.8855ZM1.00006 18.0242H1.3819V17.3749H1.00006V18.0242ZM1.70653 17.6995V17.3177H1.05726V17.6995H1.70653ZM1.3819 17.6423H3.59657V16.993H1.3819V17.6423ZM4.99141 8.37899L4.38047 9.60088L4.96119 9.89124L5.57214 8.66935L4.99141 8.37899ZM7.06077 4.69935L4.99883 8.36502L5.56472 8.68333L7.62666 5.01766L7.06077 4.69935ZM13.4443 1.59557L13.1389 0.908253L12.5456 1.17195L12.851 1.85926L13.4443 1.59557ZM12.8422 0.715465H10.093V1.36474H12.8422V0.715465ZM9.78499 0.937441L9.55589 1.62475L10.1718 1.83007L10.4009 1.14276L9.78499 0.937441ZM9.86386 1.40278H5.66362V2.05205H9.86386V1.40278ZM5.37543 1.57796C5.16596 1.98189 5.03081 2.31493 5.03081 2.68379C5.03081 3.04699 5.16227 3.40182 5.36891 3.84913L5.95832 3.57684C5.75407 3.1347 5.68008 2.89292 5.68008 2.68379C5.68008 2.48032 5.75037 2.26529 5.95181 1.87686L5.37543 1.57796ZM5.66362 4.03762H6.19819V3.38835H5.66362V4.03762ZM5.87356 3.71298V4.44304H6.52283V3.71298H5.87356ZM6.08751 4.74822L7.23303 5.16369L7.4544 4.55332L6.30888 4.13786L6.08751 4.74822ZM23.8584 16.2373L23.8584 1.72741L23.2091 1.72741L23.2091 16.2373L23.8584 16.2373ZM23.5338 1.40278H13.1477V2.05205H23.5338V1.40278ZM18.3407 21.0677H23.5337V20.4184H18.3407V21.0677ZM4.53726 16.2373V12.9196H3.88799V16.2373H4.53726Z" fill="white"/>
<path d="M39.5784 18.7065V14.9732L42.5001 16.7587L39.5784 18.7065Z" fill="white" stroke="white" stroke-width="0.64927" stroke-linejoin="round"/>
</svg>
