<svg width="805" height="340" viewBox="0 0 805 340" fill="none" xmlns="http://www.w3.org/2000/svg">
<path d="M421.173 339.641H313.5H56.2114C30.2949 339.641 13.3674 312.455 24.8028 289.198L157.384 19.5565C163.271 7.58439 175.452 0 188.793 0H462.447H560.788L534.229 63.1224L438.041 61.3291H241.375C237.487 61.3291 233.951 63.5835 232.309 67.1089L203.745 128.473C200.659 135.102 205.498 142.693 212.81 142.693H323.318C330.653 142.693 335.492 150.327 332.362 156.96L316.205 191.202C314.554 194.702 311.031 196.935 307.161 196.935H184.626C176.848 196.935 169.776 201.444 166.494 208.495L140.62 264.079C137.534 270.708 142.373 278.299 149.685 278.299H339.094L410.764 106.519L518.437 109.747L421.173 339.641Z" fill="#AAAAAA"/>
<path d="M667 340H499.408C464.627 336.329 465.197 305.129 472.515 288.244C503.113 217.645 567.678 68.5186 581.16 36.8041C594.642 5.08971 621.677 -0.881214 633.51 0.0976257C672.713 0.464691 757.214 0.978582 781.596 0.0976257C805.978 -0.783331 806.098 21.7545 803.11 33.1335L789.843 65.0682C778.728 65.3129 747.174 65.6555 709.884 65.0682C672.593 64.4809 654.904 93.2098 650.721 107.648C640.323 131.385 615.295 188.475 598.371 226.944C581.447 265.412 609.008 277.477 624.904 278.7C636.617 279.312 670.442 280.535 712.035 280.535C708.019 323.409 680.506 339.266 667 340Z" fill="#AAAAAA"/>
</svg>
