<svg width="441" height="341" viewBox="0 0 441 341" fill="none" xmlns="http://www.w3.org/2000/svg">
<path d="M1 339.926V119.216H63.8299V339.926H1Z" fill="#032B64" stroke="black" stroke-width="1.61102"/>
<rect x="1" y="27.3874" width="62.8299" height="62.8299" fill="#032B64"/>
<path fill-rule="evenodd" clip-rule="evenodd" d="M116.994 340H223.321V220.784C257.153 215.951 324.816 219.657 324.816 273.143V340H440.809V273.143C438.393 248.172 423.732 196.297 384.423 188.564C413.422 162.143 424.431 142.113 426.31 135.4C437.856 92.9765 436.46 7.00155 338.509 2.49068C240.559 -2.02018 150.02 0.611155 116.994 2.49068V340ZM223.321 74.9867V146.677H308.705C337.704 146.677 339.315 74.9867 308.705 74.9867H223.321Z" fill="#00954F"/>
</svg>
