<svg width="573" height="345" viewBox="0 0 573 345" fill="none" xmlns="http://www.w3.org/2000/svg">
<path d="M459.284 100.593C481.1 100.593 499.759 104.755 515.26 113.08C531.049 121.405 543.249 133.461 551.86 149.249C560.472 165.038 564.778 184.414 564.778 207.379V238.381H413.211C413.785 256.466 419.096 270.675 429.143 281.009C439.477 291.344 453.686 296.511 471.771 296.511C486.985 296.511 500.764 295.075 513.107 292.205C525.451 289.047 538.225 284.311 551.43 277.995V327.513C539.947 333.254 527.747 337.416 514.83 340C502.199 342.871 486.842 344.306 468.757 344.306C445.218 344.306 424.406 340 406.322 331.388C388.237 322.489 374.027 309.141 363.693 291.344C353.359 273.546 348.192 251.155 348.192 224.172C348.192 196.614 352.785 173.793 361.971 155.708C371.444 137.336 384.505 123.558 401.155 114.372C417.804 105.186 437.18 100.593 459.284 100.593ZM459.715 146.235C447.371 146.235 437.037 150.254 428.712 158.292C420.675 166.329 415.938 178.816 414.503 195.753H504.496C504.496 186.28 502.773 177.812 499.329 170.348C496.171 162.885 491.291 157 484.689 152.694C478.086 148.388 469.762 146.235 459.715 146.235Z" fill="#EC1D25"/>
<path fill-rule="evenodd" clip-rule="evenodd" d="M0 340H106.328V220.784C140.159 215.951 207.822 219.657 207.822 273.143V340H323.816V273.143C321.399 248.172 306.739 196.297 267.43 188.564C296.428 162.143 307.437 142.113 309.316 135.4C320.862 92.9765 319.466 7.00155 221.516 2.49068C123.565 -2.02018 33.026 0.611155 0 2.49068V340ZM106.328 74.9867V146.677H191.712C220.71 146.677 222.321 74.9867 191.712 74.9867H106.328Z" fill="#00954F"/>
</svg>
