<svg width="492" height="340" viewBox="0 0 492 340" fill="none" xmlns="http://www.w3.org/2000/svg">
<path d="M0 339.641L97.1941 106.519L204.789 109.747L107.595 339.641H0Z" fill="#AAAAAA"/>
<path d="M124.451 61.3291L148.84 0H247.11L220.57 63.1224L124.451 61.3291Z" fill="#AAAAAA"/>
<path d="M358 340H186.772C152.017 336.329 152.587 305.129 159.9 288.244C190.475 217.645 254.993 68.5186 268.466 36.8041C281.938 5.08971 308.954 -0.881214 320.778 0.0976257C359.952 0.464691 444.393 0.978582 468.757 0.0976257C493.122 -0.783331 493.241 21.7545 490.255 33.1335L476.998 65.0682C465.891 65.3129 434.36 65.6555 397.097 65.0682C359.833 64.4809 342.157 93.2098 337.976 107.648C327.586 131.385 302.576 188.475 285.664 226.944C268.752 265.412 296.294 277.477 312.179 278.7C323.883 279.312 357.683 280.535 399.246 280.535C395.233 323.409 371.496 339.266 358 340Z" fill="#AAAAAA"/>
</svg>
