<svg width="865" height="340" viewBox="0 0 865 340" fill="none" xmlns="http://www.w3.org/2000/svg">
<path d="M85.5517 57.7359H12.3739C5.53999 57.7359 0 52.1959 0 45.362V13.6569C0 6.82301 5.53999 1.28302 12.3739 1.28302H280.154C286.988 1.28302 292.528 6.823 292.528 13.6569V45.3619C292.528 52.1959 286.988 57.7359 280.154 57.7359H185.7C179.905 57.7359 174.887 61.7567 173.623 67.4115L114.879 330.324C113.616 335.979 108.597 340 102.803 340H59.3706C51.5637 340 45.7076 332.859 47.2362 325.203L97.6861 72.5326C99.2147 64.8768 93.3586 57.7359 85.5517 57.7359Z" fill="#AAAAAA"/>
<path d="M274.691 226.346L318.335 11.8875C319.743 4.97005 325.827 0 332.886 0H371.034C380.69 0 387.831 9.04464 385.839 18.4924C373.813 75.5102 358.843 176.491 349.894 214.838C337.956 265.984 363.82 286.442 386.103 286.442H470.132C478.333 286.442 484.981 293.09 484.981 301.29V324.04C484.981 331.714 479.143 338.022 471.472 338.258C452.439 338.841 415.114 339.102 354.072 337.587C271.627 335.542 266.799 262.574 274.691 226.346Z" fill="#AAAAAA"/>
<path d="M548.561 340H522.451C509.799 340 500.393 328.294 503.117 315.938L568.801 18.0724C570.802 8.99892 578.843 2.53754 588.135 2.53754H613.112C625.736 2.53754 635.135 14.1921 632.461 26.5289L567.91 324.395C565.937 333.502 557.88 340 548.561 340Z" fill="#AAAAAA"/>
<path d="M834.221 1.28302H792.978C789.649 1.28302 786.482 2.60485 784.148 4.9786C754.312 35.3241 693.247 95.7214 660.754 121.716C622.263 152.509 624.83 166.878 629.961 183.187C630.78 185.788 682.732 278.003 711.131 329.819C713.308 333.79 717.458 336.237 721.986 336.237H771.22C780.801 336.237 786.759 325.837 781.881 317.59C757.605 276.543 720.93 214.63 709.508 195.732C696.492 174.193 697.882 167.219 706.296 155.244C706.722 154.638 707.21 154.074 707.741 153.558L842.836 22.5396C850.815 14.801 845.337 1.28302 834.221 1.28302Z" fill="#AAAAAA"/>
</svg>
