<svg width="440" height="340" viewBox="0 0 440 340" fill="none" xmlns="http://www.w3.org/2000/svg">
<path d="M0 339.926V119.216H62.8299V339.926H0Z" fill="#AAAAAA"/>
<rect y="27.3874" width="62.8299" height="62.8299" fill="#AAAAAA"/>
<path fill-rule="evenodd" clip-rule="evenodd" d="M115.994 340H222.321V220.784C256.153 215.951 323.816 219.657 323.816 273.143V340H439.809V273.143C437.393 248.172 422.732 196.297 383.423 188.564C412.422 162.143 423.431 142.113 425.31 135.4C436.856 92.9765 435.46 7.00155 337.509 2.49068C239.559 -2.02018 149.02 0.611155 115.994 2.49068V340ZM222.321 74.9867V146.677H307.705C336.704 146.677 338.315 74.9867 307.705 74.9867H222.321Z" fill="#AAAAAA"/>
</svg>
