<svg width="603" height="139" viewBox="0 0 603 139" fill="none" xmlns="http://www.w3.org/2000/svg">
<path d="M89.515 106.695V110.44H78.2975V117.457H87.135V121.08H78.2975V128.237H89.515V132H73.555V106.695H89.515ZM116.054 119.347C116.054 121.202 115.745 122.906 115.127 124.457C114.508 126.009 113.639 127.345 112.519 128.465C111.399 129.585 110.052 130.454 108.477 131.072C106.902 131.691 105.158 132 103.244 132H93.5843V106.695H103.244C105.158 106.695 106.902 107.01 108.477 107.64C110.052 108.258 111.399 109.127 112.519 110.247C113.639 111.356 114.508 112.686 115.127 114.237C115.745 115.789 116.054 117.492 116.054 119.347ZM111.242 119.347C111.242 117.959 111.055 116.717 110.682 115.62C110.308 114.512 109.778 113.578 109.089 112.82C108.401 112.05 107.561 111.461 106.569 111.052C105.589 110.644 104.481 110.44 103.244 110.44H98.3268V128.255H103.244C104.481 128.255 105.589 128.051 106.569 127.642C107.561 127.234 108.401 126.651 109.089 125.892C109.778 125.122 110.308 124.189 110.682 123.092C111.055 121.984 111.242 120.736 111.242 119.347ZM129.583 122.165V132H124.875V122.165L115.653 106.695H119.8C120.209 106.695 120.53 106.794 120.763 106.992C121.008 107.191 121.212 107.442 121.375 107.745L126.013 116.197C126.281 116.699 126.515 117.177 126.713 117.632C126.911 118.076 127.092 118.513 127.255 118.945C127.407 118.502 127.576 118.058 127.763 117.615C127.961 117.16 128.195 116.687 128.463 116.197L133.065 107.745C133.194 107.488 133.386 107.249 133.643 107.027C133.9 106.806 134.226 106.695 134.623 106.695H138.788L129.583 122.165ZM159.063 106.695V110.562H151.451V132H146.743V110.562H139.096V106.695H159.063ZM184.952 119.347C184.952 121.202 184.642 122.923 184.024 124.51C183.406 126.085 182.537 127.45 181.417 128.605C180.297 129.76 178.949 130.664 177.374 131.317C175.799 131.959 174.055 132.28 172.142 132.28C170.228 132.28 168.478 131.959 166.892 131.317C165.317 130.664 163.963 129.76 162.832 128.605C161.712 127.45 160.842 126.085 160.224 124.51C159.606 122.923 159.297 121.202 159.297 119.347C159.297 117.492 159.606 115.777 160.224 114.202C160.842 112.616 161.712 111.245 162.832 110.09C163.963 108.935 165.317 108.037 166.892 107.395C168.478 106.742 170.228 106.415 172.142 106.415C174.055 106.415 175.799 106.742 177.374 107.395C178.949 108.048 180.297 108.952 181.417 110.107C182.537 111.251 183.406 112.616 184.024 114.202C184.642 115.777 184.952 117.492 184.952 119.347ZM180.122 119.347C180.122 117.959 179.935 116.717 179.562 115.62C179.2 114.512 178.675 113.572 177.987 112.802C177.298 112.032 176.458 111.443 175.467 111.035C174.487 110.627 173.378 110.422 172.142 110.422C170.905 110.422 169.791 110.627 168.799 111.035C167.807 111.443 166.962 112.032 166.262 112.802C165.573 113.572 165.042 114.512 164.669 115.62C164.296 116.717 164.109 117.959 164.109 119.347C164.109 120.736 164.296 121.984 164.669 123.092C165.042 124.189 165.573 125.122 166.262 125.892C166.962 126.651 167.807 127.234 168.799 127.642C169.791 128.051 170.905 128.255 172.142 128.255C173.378 128.255 174.487 128.051 175.467 127.642C176.458 127.234 177.298 126.651 177.987 125.892C178.675 125.122 179.2 124.189 179.562 123.092C179.935 121.984 180.122 120.736 180.122 119.347ZM193.537 122.113V132H188.83V106.695H196.547C198.274 106.695 199.75 106.876 200.975 107.237C202.211 107.587 203.221 108.083 204.002 108.725C204.796 109.367 205.373 110.137 205.735 111.035C206.108 111.922 206.295 112.902 206.295 113.975C206.295 114.827 206.166 115.632 205.91 116.39C205.665 117.148 205.303 117.837 204.825 118.455C204.358 119.073 203.775 119.616 203.075 120.082C202.386 120.549 201.599 120.922 200.712 121.202C201.307 121.541 201.821 122.025 202.252 122.655L208.587 132H204.352C203.944 132 203.594 131.918 203.302 131.755C203.022 131.592 202.783 131.358 202.585 131.055L197.265 122.952C197.066 122.649 196.845 122.433 196.6 122.305C196.366 122.177 196.016 122.113 195.55 122.113H193.537ZM193.537 118.735H196.477C197.364 118.735 198.134 118.624 198.787 118.402C199.452 118.181 199.995 117.877 200.415 117.492C200.846 117.096 201.167 116.629 201.377 116.092C201.587 115.556 201.692 114.967 201.692 114.325C201.692 113.042 201.266 112.056 200.415 111.367C199.575 110.679 198.286 110.335 196.547 110.335H193.537V118.735ZM231.937 111.297C231.809 111.554 231.657 111.735 231.482 111.84C231.319 111.945 231.12 111.997 230.887 111.997C230.654 111.997 230.391 111.91 230.099 111.735C229.808 111.548 229.464 111.344 229.067 111.122C228.67 110.901 228.204 110.702 227.667 110.527C227.142 110.341 226.518 110.247 225.794 110.247C225.141 110.247 224.569 110.329 224.079 110.492C223.601 110.644 223.193 110.86 222.854 111.14C222.528 111.42 222.283 111.758 222.119 112.155C221.956 112.54 221.874 112.966 221.874 113.432C221.874 114.027 222.038 114.523 222.364 114.92C222.703 115.317 223.146 115.655 223.694 115.935C224.243 116.215 224.867 116.466 225.567 116.687C226.267 116.909 226.979 117.148 227.702 117.405C228.437 117.65 229.154 117.942 229.854 118.28C230.554 118.607 231.179 119.027 231.727 119.54C232.275 120.042 232.713 120.66 233.039 121.395C233.378 122.13 233.547 123.022 233.547 124.072C233.547 125.216 233.349 126.289 232.952 127.292C232.567 128.284 231.995 129.153 231.237 129.9C230.49 130.635 229.574 131.218 228.489 131.65C227.404 132.07 226.162 132.28 224.762 132.28C223.957 132.28 223.164 132.198 222.382 132.035C221.6 131.883 220.848 131.662 220.124 131.37C219.413 131.078 218.742 130.728 218.112 130.32C217.494 129.912 216.939 129.457 216.449 128.955L217.814 126.697C217.943 126.534 218.094 126.4 218.269 126.295C218.456 126.178 218.66 126.12 218.882 126.12C219.174 126.12 219.489 126.242 219.827 126.487C220.165 126.721 220.562 126.983 221.017 127.275C221.484 127.567 222.026 127.835 222.644 128.08C223.274 128.313 224.027 128.43 224.902 128.43C226.244 128.43 227.282 128.115 228.017 127.485C228.752 126.843 229.119 125.927 229.119 124.737C229.119 124.072 228.95 123.53 228.612 123.11C228.285 122.69 227.848 122.34 227.299 122.06C226.751 121.768 226.127 121.523 225.427 121.325C224.727 121.127 224.015 120.911 223.292 120.677C222.569 120.444 221.857 120.164 221.157 119.837C220.457 119.511 219.833 119.085 219.284 118.56C218.736 118.035 218.293 117.382 217.954 116.6C217.628 115.807 217.464 114.832 217.464 113.677C217.464 112.756 217.645 111.857 218.007 110.982C218.38 110.107 218.917 109.332 219.617 108.655C220.329 107.978 221.198 107.436 222.224 107.027C223.251 106.619 224.424 106.415 225.742 106.415C227.235 106.415 228.612 106.648 229.872 107.115C231.132 107.582 232.205 108.235 233.092 109.075L231.937 111.297ZM242.004 117.3H243.106C243.55 117.3 243.917 117.242 244.209 117.125C244.501 116.997 244.751 116.798 244.961 116.53L251.944 107.692C252.236 107.319 252.539 107.062 252.854 106.922C253.181 106.771 253.589 106.695 254.079 106.695H258.139L249.616 117.212C249.348 117.539 249.091 117.813 248.846 118.035C248.601 118.257 248.339 118.437 248.059 118.577C248.444 118.717 248.788 118.916 249.091 119.172C249.406 119.429 249.71 119.756 250.001 120.152L258.786 132H254.621C254.061 132 253.641 131.924 253.361 131.772C253.093 131.609 252.866 131.376 252.679 131.072L245.521 121.727C245.288 121.424 245.026 121.208 244.734 121.08C244.442 120.94 244.028 120.87 243.491 120.87H242.004V132H237.296V106.677H242.004V117.3ZM267.475 116.775L273.74 113.642V116.792C273.74 117.224 273.547 117.539 273.162 117.737L267.475 120.695V128.115H277.607V132H262.767V122.76L259.617 124.335V121.097C259.617 120.724 259.798 120.444 260.16 120.257L262.767 118.91V106.695H267.475V116.775ZM303.097 132H299.457C299.049 132 298.711 131.901 298.442 131.702C298.186 131.492 297.999 131.236 297.882 130.932L295.992 125.77H285.51L283.62 130.932C283.526 131.201 283.34 131.446 283.06 131.667C282.791 131.889 282.459 132 282.062 132H278.405L288.345 106.695H293.157L303.097 132ZM286.717 122.445H294.785L291.705 114.027C291.565 113.654 291.407 113.217 291.232 112.715C291.069 112.202 290.906 111.647 290.742 111.052C290.579 111.647 290.416 112.202 290.252 112.715C290.101 113.228 289.949 113.677 289.797 114.062L286.717 122.445ZM328.173 119.347C328.173 121.202 327.864 122.906 327.246 124.457C326.628 126.009 325.758 127.345 324.638 128.465C323.518 129.585 322.171 130.454 320.596 131.072C319.021 131.691 317.277 132 315.363 132H305.703V106.695H315.363C317.277 106.695 319.021 107.01 320.596 107.64C322.171 108.258 323.518 109.127 324.638 110.247C325.758 111.356 326.628 112.686 327.246 114.237C327.864 115.789 328.173 117.492 328.173 119.347ZM323.361 119.347C323.361 117.959 323.174 116.717 322.801 115.62C322.428 114.512 321.897 113.578 321.208 112.82C320.52 112.05 319.68 111.461 318.688 111.052C317.708 110.644 316.6 110.44 315.363 110.44H310.446V128.255H315.363C316.6 128.255 317.708 128.051 318.688 127.642C319.68 127.234 320.52 126.651 321.208 125.892C321.897 125.122 322.428 124.189 322.801 123.092C323.174 121.984 323.361 120.736 323.361 119.347ZM356.123 119.347C356.123 121.202 355.814 122.923 355.196 124.51C354.578 126.085 353.708 127.45 352.588 128.605C351.468 129.76 350.121 130.664 348.546 131.317C346.971 131.959 345.227 132.28 343.313 132.28C341.4 132.28 339.65 131.959 338.063 131.317C336.488 130.664 335.135 129.76 334.003 128.605C332.883 127.45 332.014 126.085 331.396 124.51C330.778 122.923 330.468 121.202 330.468 119.347C330.468 117.492 330.778 115.777 331.396 114.202C332.014 112.616 332.883 111.245 334.003 110.09C335.135 108.935 336.488 108.037 338.063 107.395C339.65 106.742 341.4 106.415 343.313 106.415C345.227 106.415 346.971 106.742 348.546 107.395C350.121 108.048 351.468 108.952 352.588 110.107C353.708 111.251 354.578 112.616 355.196 114.202C355.814 115.777 356.123 117.492 356.123 119.347ZM351.293 119.347C351.293 117.959 351.107 116.717 350.733 115.62C350.372 114.512 349.847 113.572 349.158 112.802C348.47 112.032 347.63 111.443 346.638 111.035C345.658 110.627 344.55 110.422 343.313 110.422C342.077 110.422 340.963 110.627 339.971 111.035C338.979 111.443 338.133 112.032 337.433 112.802C336.745 113.572 336.214 114.512 335.841 115.62C335.468 116.717 335.281 117.959 335.281 119.347C335.281 120.736 335.468 121.984 335.841 123.092C336.214 124.189 336.745 125.122 337.433 125.892C338.133 126.651 338.979 127.234 339.971 127.642C340.963 128.051 342.077 128.255 343.313 128.255C344.55 128.255 345.658 128.051 346.638 127.642C347.63 127.234 348.47 126.651 349.158 125.892C349.847 125.122 350.372 124.189 350.733 123.092C351.107 121.984 351.293 120.736 351.293 119.347ZM350.068 100.657L344.888 104.437C344.76 104.531 344.638 104.607 344.521 104.665C344.416 104.723 344.305 104.77 344.188 104.805C344.083 104.84 343.967 104.863 343.838 104.875C343.722 104.887 343.582 104.892 343.418 104.892H340.023L343.453 101.357C343.593 101.217 343.722 101.101 343.838 101.007C343.967 100.914 344.095 100.844 344.223 100.797C344.352 100.739 344.498 100.704 344.661 100.692C344.824 100.669 345.023 100.657 345.256 100.657H350.068ZM357.499 106.695H361.454C361.862 106.695 362.201 106.794 362.469 106.992C362.749 107.179 362.936 107.436 363.029 107.762L367.334 122.9C367.439 123.273 367.532 123.682 367.614 124.125C367.707 124.557 367.795 125.017 367.877 125.507C367.97 125.017 368.069 124.557 368.174 124.125C368.291 123.682 368.413 123.273 368.542 122.9L373.512 107.762C373.605 107.494 373.786 107.249 374.054 107.027C374.334 106.806 374.672 106.695 375.069 106.695H376.452C376.86 106.695 377.198 106.794 377.467 106.992C377.735 107.179 377.922 107.436 378.027 107.762L382.962 122.9C383.218 123.647 383.44 124.475 383.627 125.385C383.708 124.93 383.79 124.492 383.872 124.072C383.965 123.652 384.058 123.262 384.152 122.9L388.457 107.762C388.538 107.471 388.719 107.22 388.999 107.01C389.279 106.8 389.617 106.695 390.014 106.695H393.707L385.849 132H381.597L376.067 114.71C375.997 114.488 375.921 114.249 375.839 113.992C375.769 113.736 375.699 113.462 375.629 113.17C375.559 113.462 375.483 113.736 375.402 113.992C375.332 114.249 375.262 114.488 375.192 114.71L369.609 132H365.357L357.499 106.695ZM427.525 119.347C427.525 121.202 427.216 122.923 426.597 124.51C425.979 126.085 425.11 127.45 423.99 128.605C422.87 129.76 421.522 130.664 419.947 131.317C418.372 131.959 416.628 132.28 414.715 132.28C412.801 132.28 411.051 131.959 409.465 131.317C407.89 130.664 406.536 129.76 405.405 128.605C404.285 127.45 403.416 126.085 402.797 124.51C402.179 122.923 401.87 121.202 401.87 119.347C401.87 117.492 402.179 115.777 402.797 114.202C403.416 112.616 404.285 111.245 405.405 110.09C406.536 108.935 407.89 108.037 409.465 107.395C411.051 106.742 412.801 106.415 414.715 106.415C416.628 106.415 418.372 106.742 419.947 107.395C421.522 108.048 422.87 108.952 423.99 110.107C425.11 111.251 425.979 112.616 426.597 114.202C427.216 115.777 427.525 117.492 427.525 119.347ZM422.695 119.347C422.695 117.959 422.508 116.717 422.135 115.62C421.773 114.512 421.248 113.572 420.56 112.802C419.871 112.032 419.031 111.443 418.04 111.035C417.06 110.627 415.951 110.422 414.715 110.422C413.478 110.422 412.364 110.627 411.372 111.035C410.381 111.443 409.535 112.032 408.835 112.802C408.146 113.572 407.616 114.512 407.242 115.62C406.869 116.717 406.682 117.959 406.682 119.347C406.682 120.736 406.869 121.984 407.242 123.092C407.616 124.189 408.146 125.122 408.835 125.892C409.535 126.651 410.381 127.234 411.372 127.642C412.364 128.051 413.478 128.255 414.715 128.255C415.951 128.255 417.06 128.051 418.04 127.642C419.031 127.234 419.871 126.651 420.56 125.892C421.248 125.122 421.773 124.189 422.135 123.092C422.508 121.984 422.695 120.736 422.695 119.347ZM433.713 106.695C433.923 106.695 434.098 106.707 434.238 106.73C434.378 106.742 434.5 106.777 434.605 106.835C434.722 106.882 434.833 106.957 434.938 107.062C435.043 107.156 435.16 107.284 435.288 107.447L448.57 124.37C448.524 123.962 448.489 123.565 448.465 123.18C448.454 122.783 448.448 122.416 448.448 122.077V106.695H452.595V132H450.163C449.79 132 449.48 131.942 449.235 131.825C448.99 131.708 448.751 131.498 448.518 131.195L435.288 114.342C435.323 114.716 435.346 115.089 435.358 115.462C435.381 115.824 435.393 116.157 435.393 116.46V132H431.245V106.695H433.713ZM462.408 128.115H472.541V132H457.701V106.695H462.408V128.115ZM481.084 132H476.359V106.695H481.084V132ZM489.255 106.695C489.465 106.695 489.64 106.707 489.78 106.73C489.92 106.742 490.042 106.777 490.147 106.835C490.264 106.882 490.375 106.957 490.48 107.062C490.585 107.156 490.702 107.284 490.83 107.447L504.112 124.37C504.066 123.962 504.031 123.565 504.007 123.18C503.996 122.783 503.99 122.416 503.99 122.077V106.695H508.137V132H505.705C505.332 132 505.022 131.942 504.777 131.825C504.532 131.708 504.293 131.498 504.06 131.195L490.83 114.342C490.865 114.716 490.888 115.089 490.9 115.462C490.923 115.824 490.935 116.157 490.935 116.46V132H486.787V106.695H489.255ZM529.203 106.695V110.44H517.985V117.457H526.823V121.08H517.985V128.237H529.203V132H513.243V106.695H529.203Z" fill="#FFD600"/>
<path d="M13.52 63.52C13.52 63.52 13.52 70.5 13.52 74.5C13.52 78.5 12.2001 83.64 6.76006 83.64C1.32005 83.64 6.10352e-05 83.64 6.10352e-05 83.64L0 24.72H20.56C24.6667 24.72 28.1867 25.2134 31.12 26.2C34.08 27.16 36.5067 28.4933 38.4 30.2C40.32 31.9067 41.7333 33.92 42.64 36.24C43.5467 38.56 44 41.0667 44 43.76C44 46.6667 43.5333 49.3334 42.6 51.76C41.6667 54.1867 40.24 56.2667 38.32 58C36.4 59.7334 33.96 61.0933 31 62.08C28.0667 63.04 24.5867 63.52 20.56 63.52H13.52ZM13.52 53.32H20.56C24.08 53.32 26.6133 52.48 28.16 50.8C29.7067 49.12 30.48 46.7734 30.48 43.76C30.48 42.4267 30.28 41.2134 29.88 40.12C29.48 39.0267 28.8667 38.0933 28.04 37.32C27.24 36.52 26.2133 35.9067 24.96 35.48C23.7333 35.0533 22.2667 34.84 20.56 34.84H13.52V53.32Z" fill="white"/>
<path d="M108.536 53.84C108.536 58.0534 107.802 61.9734 106.336 65.6C104.896 69.2267 102.856 72.3867 100.216 75.08C97.5756 77.7467 94.389 79.84 90.6556 81.36C86.949 82.88 82.829 83.64 78.2956 83.64C73.7623 83.64 69.629 82.88 65.8956 81.36C62.1623 79.84 58.9623 77.7467 56.2956 75.08C53.6556 72.3867 51.6023 69.2267 50.1356 65.6C48.6956 61.9734 47.9756 58.0534 47.9756 53.84C47.9756 49.6267 48.6956 45.7067 50.1356 42.08C51.6023 38.4534 53.6556 35.3067 56.2956 32.64C58.9623 29.9733 62.1623 27.88 65.8956 26.36C69.629 24.84 73.7623 24.08 78.2956 24.08C82.829 24.08 86.949 24.8534 90.6556 26.4C94.389 27.92 97.5756 30.0134 100.216 32.68C102.856 35.3467 104.896 38.4934 106.336 42.12C107.802 45.7467 108.536 49.6534 108.536 53.84ZM94.6956 53.84C94.6956 50.96 94.3223 48.3734 93.5756 46.08C92.829 43.76 91.749 41.8 90.3356 40.2C88.949 38.6 87.2423 37.3734 85.2156 36.52C83.189 35.6667 80.8823 35.24 78.2956 35.24C75.6823 35.24 73.349 35.6667 71.2956 36.52C69.269 37.3734 67.549 38.6 66.1356 40.2C64.749 41.8 63.6823 43.76 62.9356 46.08C62.189 48.3734 61.8156 50.96 61.8156 53.84C61.8156 56.7467 62.189 59.36 62.9356 61.68C63.6823 63.9734 64.749 65.92 66.1356 67.52C67.549 69.12 69.269 70.3467 71.2956 71.2C73.349 72.0267 75.6823 72.44 78.2956 72.44C80.8823 72.44 83.189 72.0267 85.2156 71.2C87.2423 70.3467 88.949 69.12 90.3356 67.52C91.749 65.92 92.829 63.9734 93.5756 61.68C94.3223 59.36 94.6956 56.7467 94.6956 53.84Z" fill="white"/>
<path d="M139.8 61.88C139.8 65.1334 139.387 68.0933 138.56 70.76C137.76 73.4267 136.533 75.72 134.88 77.64C133.253 79.5333 131.2 81.0134 128.72 82.08C126.24 83.12 123.32 83.64 119.96 83.64C118.44 83.64 116.933 83.56 115.44 83.4C113.973 83.24 112.44 82.9734 110.84 82.6L111.56 74.72C111.613 74.0267 111.88 73.4667 112.36 73.04C112.867 72.6134 113.56 72.4 114.44 72.4C114.893 72.4 115.453 72.48 116.12 72.64C116.787 72.7733 117.587 72.84 118.52 72.84C119.827 72.84 120.96 72.6667 121.92 72.32C122.907 71.9467 123.72 71.3467 124.36 70.52C125 69.6667 125.48 68.56 125.8 67.2C126.12 65.84 126.28 64.16 126.28 62.16L125.8 7H139.8H539.487V17.5H139.8V61.88Z" fill="white"/>
<path d="M201.584 83H191.104C189.93 83 188.957 82.7334 188.184 82.2C187.437 81.64 186.917 80.9333 186.624 80.08L183.184 69.92H161.024L157.584 80.08C157.317 80.8267 156.797 81.5067 156.024 82.12C155.25 82.7067 154.304 83 153.184 83H142.624L165.184 24.72H179.024L201.584 83ZM164.144 60.72H180.064L174.704 44.76C174.357 43.7467 173.944 42.56 173.464 41.2C173.01 39.8134 172.557 38.32 172.104 36.72C171.677 38.3467 171.237 39.8533 170.784 41.24C170.33 42.6267 169.904 43.8267 169.504 44.84L164.144 60.72Z" fill="white"/>
<path d="M251.04 24.72V29.6C251.04 30.2934 250.92 30.9734 250.68 31.64C250.467 32.3067 250.16 32.9333 249.76 33.52L222.4 72.6H250.16L237.772 83H205.2V77.8C205.2 77.1867 205.307 76.5867 205.52 76C205.733 75.3867 206.027 74.8267 206.4 74.32L233.84 35.12H207.44L219.272 24.72H251.04Z" fill="white"/>
<path d="M308.036 53.84C308.036 58.0534 307.303 61.9467 305.836 65.52C304.396 69.0667 302.356 72.1467 299.716 74.76C297.076 77.3467 293.89 79.3734 290.156 80.84C286.45 82.28 282.33 83 277.796 83H255.156V24.72H277.796C282.33 24.72 286.45 25.4534 290.156 26.92C293.89 28.3867 297.076 30.4133 299.716 33C302.356 35.5867 304.396 38.6667 305.836 42.24C307.303 45.7867 308.036 49.6534 308.036 53.84ZM294.196 53.84C294.196 50.96 293.823 48.36 293.076 46.04C292.33 43.72 291.25 41.76 289.836 40.16C288.45 38.5333 286.743 37.2934 284.716 36.44C282.69 35.56 280.383 35.12 277.796 35.12H268.756V72.6H277.796C280.383 72.6 282.69 72.1734 284.716 71.32C286.743 70.44 288.45 69.2 289.836 67.6C291.25 65.9734 292.33 64 293.076 61.68C293.823 59.36 294.196 56.7467 294.196 53.84Z" fill="white"/>
<path d="M372.051 53.84C372.051 58.0534 371.318 61.9734 369.851 65.6C368.411 69.2267 366.371 72.3867 363.731 75.08C361.091 77.7467 357.905 79.84 354.171 81.36C350.465 82.88 346.345 83.64 341.811 83.64C337.278 83.64 333.145 82.88 329.411 81.36C325.678 79.84 322.478 77.7467 319.811 75.08C317.171 72.3867 315.118 69.2267 313.651 65.6C312.211 61.9734 311.491 58.0534 311.491 53.84C311.491 49.6267 312.211 45.7067 313.651 42.08C315.118 38.4534 317.171 35.3067 319.811 32.64C322.478 29.9733 325.678 27.88 329.411 26.36C333.145 24.84 337.278 24.08 341.811 24.08C346.345 24.08 350.465 24.8534 354.171 26.4C357.905 27.92 361.091 30.0134 363.731 32.68C366.371 35.3467 368.411 38.4934 369.851 42.12C371.318 45.7467 372.051 49.6534 372.051 53.84ZM358.211 53.84C358.211 50.96 357.838 48.3734 357.091 46.08C356.345 43.76 355.265 41.8 353.851 40.2C352.465 38.6 350.758 37.3734 348.731 36.52C346.705 35.6667 344.398 35.24 341.811 35.24C339.198 35.24 336.865 35.6667 334.811 36.52C332.785 37.3734 331.065 38.6 329.651 40.2C328.265 41.8 327.198 43.76 326.451 46.08C325.705 48.3734 325.331 50.96 325.331 53.84C325.331 56.7467 325.705 59.36 326.451 61.68C327.198 63.9734 328.265 65.92 329.651 67.52C331.065 69.12 332.785 70.3467 334.811 71.2C336.865 72.0267 339.198 72.44 341.811 72.44C344.398 72.44 346.705 72.0267 348.731 71.2C350.758 70.3467 352.465 69.12 353.851 67.52C355.265 65.92 356.345 63.9734 357.091 61.68C357.838 59.36 358.211 56.7467 358.211 53.84Z" fill="white"/>
<path d="M374.116 24.72H385.476C386.649 24.72 387.622 24.9867 388.396 25.52C389.196 26.0534 389.716 26.76 389.956 27.64L397.956 58.04C398.222 59.0267 398.489 60.08 398.756 61.2C399.022 62.32 399.222 63.4934 399.356 64.72C399.622 63.4667 399.916 62.2934 400.236 61.2C400.556 60.08 400.862 59.0267 401.156 58.04L410.596 27.64C410.836 26.8934 411.342 26.2267 412.116 25.64C412.916 25.0267 413.876 24.72 414.996 24.72H418.996C420.169 24.72 421.129 24.9867 421.876 25.52C422.649 26.0267 423.182 26.7333 423.476 27.64L432.836 58.04C433.129 58.9734 433.436 59.9734 433.756 61.04C434.076 62.08 434.356 63.2 434.596 64.4C434.809 63.2267 435.022 62.1067 435.236 61.04C435.476 59.9734 435.716 58.9734 435.956 58.04L443.956 27.64C444.169 26.8667 444.676 26.1867 445.476 25.6C446.276 25.0134 447.236 24.72 448.356 24.72H458.996L440.996 83H428.756L417.796 46.88C417.609 46.32 417.409 45.7067 417.196 45.04C417.009 44.3734 416.822 43.6667 416.636 42.92C416.449 43.6667 416.249 44.3734 416.036 45.04C415.849 45.7067 415.662 46.32 415.476 46.88L404.356 83H392.116L374.116 24.72Z" fill="white"/>
<path d="M471.339 24.72C471.925 24.72 472.419 24.7467 472.819 24.8C473.219 24.8534 473.579 24.96 473.899 25.12C474.219 25.2534 474.525 25.4534 474.819 25.72C475.112 25.9867 475.445 26.3467 475.819 26.8L503.499 61.8C503.392 60.68 503.312 59.6 503.259 58.56C503.205 57.4934 503.179 56.4934 503.179 55.56V24.72H515.099V83H508.059C507.019 83 506.139 82.84 505.419 82.52C504.699 82.2 504.005 81.6133 503.339 80.76L475.859 46.04C475.939 47.0533 476.005 48.0533 476.059 49.04C476.112 50 476.139 50.9067 476.139 51.76V83H464.219V24.72H471.339Z" fill="white"/>
<path d="M539.487 83H525.887V24.72H539.487V83Z" fill="white"/>
<path d="M563.833 48.32H565.992C567.992 48.32 569.432 47.6934 570.312 46.44L583.432 27.4C584.152 26.36 584.966 25.6534 585.872 25.28C586.806 24.9067 587.939 24.72 589.272 24.72H601.032L583.752 48.28C583.139 49.1334 582.499 49.84 581.833 50.4C581.166 50.96 580.486 51.4267 579.792 51.8C580.806 52.1734 581.726 52.6934 582.552 53.36C583.406 54 584.179 54.8667 584.872 55.96L602.472 83H590.392C589.619 83 588.952 82.9467 588.392 82.84C587.859 82.7334 587.392 82.5733 586.992 82.36C586.592 82.1467 586.246 81.8934 585.953 81.6C585.659 81.28 585.379 80.92 585.112 80.52L571.912 60.24C571.432 59.4934 570.819 58.9734 570.073 58.68C569.353 58.36 568.366 58.2 567.112 58.2H563.833V83H550.312V24.72H563.833V48.32Z" fill="white"/>
<path d="M571.958 5.973V8.921H567.448V22H563.73V8.921H559.22V5.973H571.958ZM588.032 13.981C588.032 15.1397 587.83 16.2103 587.427 17.193C587.031 18.1683 586.47 19.0153 585.744 19.734C585.018 20.4453 584.142 21.0027 583.115 21.406C582.096 21.802 580.963 22 579.716 22H573.49V5.973H579.716C580.963 5.973 582.096 6.17467 583.115 6.578C584.142 6.98133 585.018 7.53867 585.744 8.25C586.47 8.96133 587.031 9.80833 587.427 10.791C587.83 11.7663 588.032 12.8297 588.032 13.981ZM584.226 13.981C584.226 13.189 584.123 12.474 583.918 11.836C583.713 11.198 583.416 10.659 583.027 10.219C582.646 9.77167 582.176 9.43067 581.619 9.196C581.062 8.954 580.427 8.833 579.716 8.833H577.23V19.14H579.716C580.427 19.14 581.062 19.0227 581.619 18.788C582.176 18.546 582.646 18.205 583.027 17.765C583.416 17.3177 583.713 16.775 583.918 16.137C584.123 15.499 584.226 14.7803 584.226 13.981ZM595.12 5.797C595.912 5.797 596.623 5.91433 597.254 6.149C597.892 6.37633 598.435 6.69533 598.882 7.106C599.329 7.51667 599.67 8.008 599.905 8.58C600.147 9.14467 600.268 9.768 600.268 10.45C600.268 11.0367 600.184 11.5793 600.015 12.078C599.854 12.5767 599.63 13.0533 599.344 13.508C599.058 13.9553 598.724 14.3917 598.343 14.817C597.969 15.235 597.569 15.6603 597.144 16.093L594.009 19.305C594.412 19.1877 594.808 19.096 595.197 19.03C595.593 18.9567 595.963 18.92 596.308 18.92H599.3C599.667 18.92 599.956 19.0227 600.169 19.228C600.382 19.426 600.488 19.69 600.488 20.02V22H589.224V20.9C589.224 20.6873 589.268 20.46 589.356 20.218C589.444 19.976 589.598 19.756 589.818 19.558L594.438 14.905C594.834 14.509 595.179 14.1313 595.472 13.772C595.765 13.4127 596.007 13.0607 596.198 12.716C596.389 12.364 596.532 12.0157 596.627 11.671C596.722 11.319 596.77 10.9487 596.77 10.56C596.77 9.922 596.616 9.43433 596.308 9.097C596.007 8.75233 595.545 8.58 594.922 8.58C594.665 8.58 594.431 8.61667 594.218 8.69C594.005 8.76333 593.815 8.86233 593.646 8.987C593.477 9.11167 593.331 9.25833 593.206 9.427C593.089 9.59567 592.993 9.779 592.92 9.977C592.803 10.307 592.652 10.5453 592.469 10.692C592.293 10.8387 592.051 10.912 591.743 10.912C591.67 10.912 591.589 10.9083 591.501 10.901C591.42 10.8937 591.336 10.8827 591.248 10.868L589.444 10.549C589.561 9.74967 589.785 9.053 590.115 8.459C590.452 7.865 590.867 7.37 591.358 6.974C591.857 6.578 592.425 6.28467 593.063 6.094C593.701 5.896 594.387 5.797 595.12 5.797Z" fill="#FFD600"/>
</svg>
