<svg width="603" height="139" viewBox="0 0 603 139" fill="none" xmlns="http://www.w3.org/2000/svg">
<path d="M106.465 118.735C107.352 118.735 108.122 118.624 108.775 118.402C109.44 118.181 109.983 117.877 110.403 117.492C110.834 117.096 111.155 116.629 111.365 116.092C111.575 115.556 111.68 114.967 111.68 114.325C111.68 113.042 111.254 112.056 110.403 111.367C109.563 110.679 108.273 110.335 106.535 110.335H103.525V118.735H106.465ZM118.575 132H114.323C113.518 132 112.934 131.685 112.573 131.055L107.253 122.952C107.054 122.649 106.833 122.433 106.588 122.305C106.354 122.177 106.004 122.113 105.538 122.113H103.525V132H98.8175V106.695H106.535C108.25 106.695 109.72 106.876 110.945 107.237C112.182 107.587 113.191 108.083 113.973 108.725C114.766 109.367 115.349 110.137 115.723 111.035C116.096 111.922 116.283 112.902 116.283 113.975C116.283 114.827 116.154 115.632 115.898 116.39C115.653 117.148 115.291 117.837 114.813 118.455C114.346 119.073 113.763 119.616 113.063 120.082C112.374 120.549 111.587 120.917 110.7 121.185C111.003 121.36 111.283 121.57 111.54 121.815C111.797 122.048 112.03 122.328 112.24 122.655L118.575 132ZM145.098 119.347C145.098 121.202 144.789 122.923 144.171 124.51C143.564 126.085 142.701 127.45 141.581 128.605C140.461 129.76 139.113 130.664 137.538 131.317C135.963 131.959 134.213 132.28 132.288 132.28C130.375 132.28 128.631 131.959 127.056 131.317C125.481 130.664 124.128 129.76 122.996 128.605C121.876 127.45 121.007 126.085 120.388 124.51C119.77 122.923 119.461 121.202 119.461 119.347C119.461 117.492 119.77 115.777 120.388 114.202C121.007 112.616 121.876 111.245 122.996 110.09C124.128 108.935 125.481 108.037 127.056 107.395C128.631 106.742 130.375 106.415 132.288 106.415C133.572 106.415 134.779 106.567 135.911 106.87C137.043 107.162 138.081 107.582 139.026 108.13C139.971 108.667 140.817 109.326 141.563 110.107C142.322 110.877 142.963 111.741 143.488 112.697C144.013 113.654 144.41 114.692 144.678 115.812C144.958 116.932 145.098 118.111 145.098 119.347ZM140.286 119.347C140.286 117.959 140.099 116.717 139.726 115.62C139.353 114.512 138.822 113.572 138.133 112.802C137.445 112.032 136.605 111.443 135.613 111.035C134.633 110.627 133.525 110.422 132.288 110.422C131.052 110.422 129.938 110.627 128.946 111.035C127.966 111.443 127.126 112.032 126.426 112.802C125.738 113.572 125.207 114.512 124.833 115.62C124.46 116.717 124.273 117.959 124.273 119.347C124.273 120.736 124.46 121.984 124.833 123.092C125.207 124.189 125.738 125.122 126.426 125.892C127.126 126.651 127.966 127.234 128.946 127.642C129.938 128.051 131.052 128.255 132.288 128.255C133.525 128.255 134.633 128.051 135.613 127.642C136.605 127.234 137.445 126.651 138.133 125.892C138.822 125.122 139.353 124.189 139.726 123.092C140.099 121.984 140.286 120.736 140.286 119.347ZM164.055 128.115V132H149.233V106.695H153.94V128.115H164.055ZM182.239 128.115V132H167.416V106.695H172.124V128.115H182.239ZM190.325 132H185.6V106.695H190.325V132ZM217.323 106.695V132H214.908C214.535 132 214.22 131.942 213.963 131.825C213.718 131.697 213.479 131.487 213.245 131.195L200.033 114.325C200.103 115.095 200.138 115.807 200.138 116.46V132H195.99V106.695H198.458C198.656 106.695 198.825 106.707 198.965 106.73C199.117 106.742 199.245 106.777 199.35 106.835C199.467 106.882 199.578 106.957 199.683 107.062C199.788 107.156 199.905 107.284 200.033 107.447L213.298 124.387C213.263 123.979 213.234 123.577 213.21 123.18C213.187 122.783 213.175 122.416 213.175 122.077V106.695H217.323ZM243.818 119.312V129.55C242.535 130.495 241.164 131.189 239.706 131.632C238.259 132.064 236.707 132.28 235.051 132.28C232.986 132.28 231.113 131.959 229.433 131.317C227.765 130.676 226.336 129.783 225.146 128.64C223.967 127.497 223.057 126.132 222.416 124.545C221.774 122.958 221.453 121.226 221.453 119.347C221.453 117.446 221.762 115.702 222.381 114.115C222.999 112.528 223.874 111.163 225.006 110.02C226.149 108.877 227.531 107.99 229.153 107.36C230.775 106.73 232.595 106.415 234.613 106.415C235.64 106.415 236.596 106.497 237.483 106.66C238.381 106.823 239.21 107.051 239.968 107.342C240.738 107.622 241.438 107.967 242.068 108.375C242.698 108.783 243.276 109.232 243.801 109.722L242.453 111.857C242.243 112.196 241.969 112.406 241.631 112.487C241.292 112.557 240.925 112.47 240.528 112.225C240.143 112.003 239.758 111.782 239.373 111.56C238.988 111.338 238.556 111.146 238.078 110.982C237.611 110.819 237.081 110.685 236.486 110.58C235.902 110.475 235.226 110.422 234.456 110.422C233.207 110.422 232.076 110.632 231.061 111.052C230.057 111.472 229.2 112.073 228.488 112.855C227.776 113.637 227.228 114.576 226.843 115.672C226.458 116.769 226.266 117.994 226.266 119.347C226.266 120.794 226.47 122.089 226.878 123.232C227.298 124.364 227.881 125.327 228.628 126.12C229.386 126.902 230.296 127.502 231.358 127.922C232.42 128.331 233.604 128.535 234.911 128.535C235.844 128.535 236.678 128.436 237.413 128.237C238.148 128.039 238.866 127.771 239.566 127.432V122.847H236.381C236.077 122.847 235.838 122.766 235.663 122.602C235.5 122.427 235.418 122.217 235.418 121.972V119.312H243.818ZM270.339 111.297C270.199 111.542 270.048 111.723 269.884 111.84C269.733 111.945 269.54 111.997 269.307 111.997C269.062 111.997 268.794 111.91 268.502 111.735C268.222 111.548 267.884 111.344 267.487 111.122C267.09 110.901 266.624 110.702 266.087 110.527C265.562 110.341 264.938 110.247 264.214 110.247C263.561 110.247 262.989 110.329 262.499 110.492C262.009 110.644 261.595 110.86 261.257 111.14C260.93 111.42 260.685 111.758 260.522 112.155C260.359 112.54 260.277 112.966 260.277 113.432C260.277 114.027 260.44 114.523 260.767 114.92C261.105 115.317 261.549 115.655 262.097 115.935C262.645 116.215 263.269 116.466 263.969 116.687C264.669 116.909 265.387 117.148 266.122 117.405C266.857 117.65 267.574 117.942 268.274 118.28C268.974 118.607 269.599 119.027 270.147 119.54C270.695 120.042 271.133 120.66 271.459 121.395C271.798 122.13 271.967 123.022 271.967 124.072C271.967 125.216 271.769 126.289 271.372 127.292C270.987 128.284 270.415 129.153 269.657 129.9C268.91 130.635 267.994 131.218 266.909 131.65C265.824 132.07 264.582 132.28 263.182 132.28C262.377 132.28 261.584 132.198 260.802 132.035C260.02 131.883 259.268 131.662 258.544 131.37C257.833 131.078 257.162 130.728 256.532 130.32C255.902 129.912 255.342 129.457 254.852 128.955L256.234 126.697C256.351 126.534 256.503 126.4 256.689 126.295C256.876 126.178 257.074 126.12 257.284 126.12C257.576 126.12 257.891 126.242 258.229 126.487C258.568 126.721 258.97 126.983 259.437 127.275C259.904 127.567 260.446 127.835 261.064 128.08C261.694 128.313 262.447 128.43 263.322 128.43C264.664 128.43 265.702 128.115 266.437 127.485C267.172 126.843 267.539 125.927 267.539 124.737C267.539 124.072 267.37 123.53 267.032 123.11C266.705 122.69 266.268 122.34 265.719 122.06C265.171 121.768 264.547 121.523 263.847 121.325C263.147 121.127 262.435 120.911 261.712 120.677C260.989 120.444 260.277 120.164 259.577 119.837C258.877 119.511 258.253 119.085 257.704 118.56C257.156 118.035 256.713 117.382 256.374 116.6C256.048 115.807 255.884 114.832 255.884 113.677C255.884 112.756 256.065 111.857 256.427 110.982C256.8 110.107 257.337 109.332 258.037 108.655C258.737 107.978 259.6 107.436 260.627 107.027C261.654 106.619 262.832 106.415 264.162 106.415C265.655 106.415 267.032 106.648 268.292 107.115C269.552 107.582 270.625 108.235 271.512 109.075L270.339 111.297ZM293.748 110.562H286.118V132H281.411V110.562H273.781V106.695H293.748V110.562ZM320.338 119.347C320.338 121.202 320.029 122.923 319.41 124.51C318.804 126.085 317.94 127.45 316.82 128.605C315.7 129.76 314.353 130.664 312.778 131.317C311.203 131.959 309.453 132.28 307.528 132.28C305.614 132.28 303.87 131.959 302.295 131.317C300.72 130.664 299.367 129.76 298.235 128.605C297.115 127.45 296.246 126.085 295.628 124.51C295.009 122.923 294.7 121.202 294.7 119.347C294.7 117.492 295.009 115.777 295.628 114.202C296.246 112.616 297.115 111.245 298.235 110.09C299.367 108.935 300.72 108.037 302.295 107.395C303.87 106.742 305.614 106.415 307.528 106.415C308.811 106.415 310.019 106.567 311.15 106.87C312.282 107.162 313.32 107.582 314.265 108.13C315.21 108.667 316.056 109.326 316.803 110.107C317.561 110.877 318.203 111.741 318.728 112.697C319.253 113.654 319.649 114.692 319.918 115.812C320.198 116.932 320.338 118.111 320.338 119.347ZM315.525 119.347C315.525 117.959 315.339 116.717 314.965 115.62C314.592 114.512 314.061 113.572 313.373 112.802C312.684 112.032 311.844 111.443 310.853 111.035C309.873 110.627 308.764 110.422 307.528 110.422C306.291 110.422 305.177 110.627 304.185 111.035C303.205 111.443 302.365 112.032 301.665 112.802C300.977 113.572 300.446 114.512 300.073 115.62C299.699 116.717 299.513 117.959 299.513 119.347C299.513 120.736 299.699 121.984 300.073 123.092C300.446 124.189 300.977 125.122 301.665 125.892C302.365 126.651 303.205 127.234 304.185 127.642C305.177 128.051 306.291 128.255 307.528 128.255C308.764 128.255 309.873 128.051 310.853 127.642C311.844 127.234 312.684 126.651 313.373 125.892C314.061 125.122 314.592 124.189 314.965 123.092C315.339 121.984 315.525 120.736 315.525 119.347ZM341.849 126.032C342.106 126.032 342.333 126.132 342.532 126.33L344.387 128.342C343.36 129.614 342.094 130.588 340.589 131.265C339.096 131.942 337.299 132.28 335.199 132.28C333.321 132.28 331.629 131.959 330.124 131.317C328.631 130.676 327.353 129.783 326.292 128.64C325.23 127.497 324.413 126.132 323.842 124.545C323.282 122.958 323.002 121.226 323.002 119.347C323.002 117.446 323.305 115.707 323.912 114.132C324.518 112.546 325.37 111.181 326.467 110.037C327.575 108.894 328.893 108.007 330.422 107.377C331.95 106.736 333.642 106.415 335.497 106.415C337.34 106.415 338.973 106.718 340.397 107.325C341.832 107.932 343.051 108.725 344.054 109.705L342.479 111.892C342.386 112.032 342.263 112.155 342.112 112.26C341.972 112.365 341.773 112.417 341.517 112.417C341.342 112.417 341.161 112.371 340.974 112.277C340.788 112.172 340.583 112.05 340.362 111.91C340.14 111.758 339.883 111.595 339.592 111.42C339.3 111.245 338.962 111.087 338.577 110.947C338.192 110.796 337.743 110.673 337.229 110.58C336.728 110.475 336.144 110.422 335.479 110.422C334.348 110.422 333.309 110.627 332.364 111.035C331.431 111.432 330.626 112.015 329.949 112.785C329.273 113.543 328.748 114.477 328.374 115.585C328.001 116.682 327.814 117.936 327.814 119.347C327.814 120.771 328.013 122.037 328.409 123.145C328.818 124.253 329.366 125.187 330.054 125.945C330.743 126.703 331.553 127.287 332.487 127.695C333.42 128.092 334.423 128.29 335.497 128.29C336.138 128.29 336.716 128.255 337.229 128.185C337.754 128.115 338.233 128.004 338.664 127.852C339.108 127.701 339.522 127.508 339.907 127.275C340.303 127.03 340.694 126.732 341.079 126.382C341.196 126.277 341.318 126.196 341.447 126.137C341.575 126.067 341.709 126.032 341.849 126.032ZM352.319 117.3H353.421C353.865 117.3 354.232 117.242 354.524 117.125C354.816 116.997 355.066 116.798 355.276 116.53L362.259 107.692C362.551 107.319 362.854 107.062 363.169 106.922C363.496 106.771 363.904 106.695 364.394 106.695H368.454L359.931 117.212C359.43 117.854 358.911 118.309 358.374 118.577C358.759 118.717 359.103 118.916 359.406 119.172C359.721 119.417 360.019 119.744 360.299 120.152L369.084 132H364.936C364.376 132 363.956 131.924 363.676 131.772C363.408 131.609 363.181 131.376 362.994 131.072L355.836 121.727C355.615 121.412 355.358 121.191 355.066 121.062C354.775 120.934 354.355 120.87 353.806 120.87H352.319V132H347.611V106.695H352.319V117.3ZM384.841 110.44V117.457H393.696V121.08H384.841V128.237H396.076V132H380.116V106.695H396.076V110.44H384.841ZM422.718 119.347C422.718 121.202 422.409 122.906 421.791 124.457C421.172 126.009 420.303 127.345 419.183 128.465C418.063 129.585 416.716 130.454 415.141 131.072C413.566 131.691 411.816 132 409.891 132H400.248V106.695H409.891C411.816 106.695 413.566 107.01 415.141 107.64C416.716 108.258 418.063 109.127 419.183 110.247C420.303 111.356 421.172 112.686 421.791 114.237C422.409 115.789 422.718 117.492 422.718 119.347ZM417.888 119.347C417.888 117.959 417.701 116.717 417.328 115.62C416.966 114.512 416.436 113.578 415.736 112.82C415.047 112.05 414.207 111.461 413.216 111.052C412.236 110.644 411.127 110.44 409.891 110.44H404.973V128.255H409.891C411.127 128.255 412.236 128.051 413.216 127.642C414.207 127.234 415.047 126.651 415.736 125.892C416.436 125.122 416.966 124.189 417.328 123.092C417.701 121.984 417.888 120.736 417.888 119.347ZM431.599 132H426.874V106.695H431.599V132ZM454.94 110.562H447.31V132H442.602V110.562H434.972V106.695H454.94V110.562ZM481.529 119.347C481.529 121.202 481.22 122.923 480.602 124.51C479.995 126.085 479.132 127.45 478.012 128.605C476.892 129.76 475.544 130.664 473.969 131.317C472.394 131.959 470.644 132.28 468.719 132.28C466.806 132.28 465.062 131.959 463.487 131.317C461.912 130.664 460.558 129.76 459.427 128.605C458.307 127.45 457.437 126.085 456.819 124.51C456.201 122.923 455.892 121.202 455.892 119.347C455.892 117.492 456.201 115.777 456.819 114.202C457.437 112.616 458.307 111.245 459.427 110.09C460.558 108.935 461.912 108.037 463.487 107.395C465.062 106.742 466.806 106.415 468.719 106.415C470.002 106.415 471.21 106.567 472.342 106.87C473.473 107.162 474.512 107.582 475.457 108.13C476.402 108.667 477.247 109.326 477.994 110.107C478.752 110.877 479.394 111.741 479.919 112.697C480.444 113.654 480.841 114.692 481.109 115.812C481.389 116.932 481.529 118.111 481.529 119.347ZM476.717 119.347C476.717 117.959 476.53 116.717 476.157 115.62C475.783 114.512 475.252 113.572 474.564 112.802C473.876 112.032 473.036 111.443 472.044 111.035C471.064 110.627 469.956 110.422 468.719 110.422C467.482 110.422 466.368 110.627 465.377 111.035C464.397 111.443 463.557 112.032 462.857 112.802C462.168 113.572 461.637 114.512 461.264 115.62C460.891 116.717 460.704 117.959 460.704 119.347C460.704 120.736 460.891 121.984 461.264 123.092C461.637 124.189 462.168 125.122 462.857 125.892C463.557 126.651 464.397 127.234 465.377 127.642C466.368 128.051 467.482 128.255 468.719 128.255C469.956 128.255 471.064 128.051 472.044 127.642C473.036 127.234 473.876 126.651 474.564 125.892C475.252 125.122 475.783 124.189 476.157 123.092C476.53 121.984 476.717 120.736 476.717 119.347ZM493.311 118.735C494.197 118.735 494.967 118.624 495.621 118.402C496.286 118.181 496.828 117.877 497.248 117.492C497.68 117.096 498.001 116.629 498.211 116.092C498.421 115.556 498.526 114.967 498.526 114.325C498.526 113.042 498.1 112.056 497.248 111.367C496.408 110.679 495.119 110.335 493.381 110.335H490.371V118.735H493.311ZM505.421 132H501.168C500.363 132 499.78 131.685 499.418 131.055L494.098 122.952C493.9 122.649 493.678 122.433 493.433 122.305C493.2 122.177 492.85 122.113 492.383 122.113H490.371V132H485.663V106.695H493.381C495.096 106.695 496.566 106.876 497.791 107.237C499.027 107.587 500.037 108.083 500.818 108.725C501.612 109.367 502.195 110.137 502.568 111.035C502.942 111.922 503.128 112.902 503.128 113.975C503.128 114.827 503 115.632 502.743 116.39C502.498 117.148 502.137 117.837 501.658 118.455C501.192 119.073 500.608 119.616 499.908 120.082C499.22 120.549 498.432 120.917 497.546 121.185C497.849 121.36 498.129 121.57 498.386 121.815C498.642 122.048 498.876 122.328 499.086 122.655L505.421 132Z" fill="#FFD600"/>
<path d="M13.52 63.52C13.52 63.52 13.52 70.5 13.52 74.5C13.52 78.5 12.2001 83.64 6.76006 83.64C1.32005 83.64 6.10352e-05 83.64 6.10352e-05 83.64L0 24.72H20.56C24.6667 24.72 28.1867 25.2134 31.12 26.2C34.08 27.16 36.5067 28.4933 38.4 30.2C40.32 31.9067 41.7333 33.92 42.64 36.24C43.5467 38.56 44 41.0667 44 43.76C44 46.6667 43.5333 49.3334 42.6 51.76C41.6667 54.1867 40.24 56.2667 38.32 58C36.4 59.7334 33.96 61.0934 31 62.08C28.0667 63.04 24.5867 63.52 20.56 63.52H13.52ZM13.52 53.32H20.56C24.08 53.32 26.6133 52.48 28.16 50.8C29.7067 49.12 30.48 46.7734 30.48 43.76C30.48 42.4267 30.28 41.2134 29.88 40.12C29.48 39.0267 28.8667 38.0933 28.04 37.32C27.24 36.52 26.2133 35.9067 24.96 35.48C23.7333 35.0533 22.2667 34.84 20.56 34.84H13.52V53.32Z" fill="#EDEDED"/>
<path d="M108.536 53.84C108.536 58.0534 107.802 61.9734 106.336 65.6C104.896 69.2267 102.856 72.3867 100.216 75.08C97.5756 77.7467 94.389 79.84 90.6556 81.36C86.949 82.88 82.829 83.64 78.2956 83.64C73.7623 83.64 69.629 82.88 65.8956 81.36C62.1623 79.84 58.9623 77.7467 56.2956 75.08C53.6556 72.3867 51.6023 69.2267 50.1356 65.6C48.6956 61.9734 47.9756 58.0534 47.9756 53.84C47.9756 49.6267 48.6956 45.7067 50.1356 42.08C51.6023 38.4533 53.6556 35.3067 56.2956 32.64C58.9623 29.9733 62.1623 27.88 65.8956 26.36C69.629 24.84 73.7623 24.08 78.2956 24.08C82.829 24.08 86.949 24.8534 90.6556 26.4C94.389 27.92 97.5756 30.0134 100.216 32.68C102.856 35.3467 104.896 38.4934 106.336 42.12C107.802 45.7467 108.536 49.6534 108.536 53.84ZM94.6956 53.84C94.6956 50.96 94.3223 48.3734 93.5756 46.08C92.829 43.76 91.749 41.8 90.3356 40.2C88.949 38.6 87.2423 37.3734 85.2156 36.52C83.189 35.6667 80.8823 35.24 78.2956 35.24C75.6823 35.24 73.349 35.6667 71.2956 36.52C69.269 37.3734 67.549 38.6 66.1356 40.2C64.749 41.8 63.6823 43.76 62.9356 46.08C62.189 48.3734 61.8156 50.96 61.8156 53.84C61.8156 56.7467 62.189 59.36 62.9356 61.68C63.6823 63.9733 64.749 65.92 66.1356 67.52C67.549 69.12 69.269 70.3467 71.2956 71.2C73.349 72.0267 75.6823 72.44 78.2956 72.44C80.8823 72.44 83.189 72.0267 85.2156 71.2C87.2423 70.3467 88.949 69.12 90.3356 67.52C91.749 65.92 92.829 63.9733 93.5756 61.68C94.3223 59.36 94.6956 56.7467 94.6956 53.84Z" fill="#EDEDED"/>
<path d="M139.8 61.88C139.8 65.1334 139.387 68.0934 138.56 70.76C137.76 73.4267 136.533 75.72 134.88 77.64C133.253 79.5333 131.2 81.0134 128.72 82.08C126.24 83.12 123.32 83.64 119.96 83.64C118.44 83.64 116.933 83.56 115.44 83.4C113.973 83.24 112.44 82.9734 110.84 82.6L111.56 74.72C111.613 74.0267 111.88 73.4667 112.36 73.04C112.867 72.6134 113.56 72.4 114.44 72.4C114.893 72.4 115.453 72.48 116.12 72.64C116.787 72.7733 117.587 72.84 118.52 72.84C119.827 72.84 120.96 72.6667 121.92 72.32C122.907 71.9467 123.72 71.3467 124.36 70.52C125 69.6667 125.48 68.56 125.8 67.2C126.12 65.84 126.28 64.16 126.28 62.16L125.8 7H139.8H539.487V17.5H139.8V61.88Z" fill="#EDEDED"/>
<path d="M201.584 83H191.104C189.93 83 188.957 82.7334 188.184 82.2C187.437 81.64 186.917 80.9334 186.624 80.08L183.184 69.92H161.024L157.584 80.08C157.317 80.8267 156.797 81.5067 156.024 82.12C155.25 82.7067 154.304 83 153.184 83H142.624L165.184 24.72H179.024L201.584 83ZM164.144 60.72H180.064L174.704 44.76C174.357 43.7467 173.944 42.56 173.464 41.2C173.01 39.8134 172.557 38.32 172.104 36.72C171.677 38.3467 171.237 39.8533 170.784 41.24C170.33 42.6267 169.904 43.8267 169.504 44.84L164.144 60.72Z" fill="#EDEDED"/>
<path d="M251.04 24.72V29.6C251.04 30.2934 250.92 30.9734 250.68 31.64C250.467 32.3067 250.16 32.9334 249.76 33.52L222.4 72.6H250.16L237.772 83H205.2V77.8C205.2 77.1867 205.307 76.5867 205.52 76C205.733 75.3867 206.027 74.8267 206.4 74.32L233.84 35.12H207.44L219.272 24.72H251.04Z" fill="#EDEDED"/>
<path d="M308.036 53.84C308.036 58.0534 307.303 61.9467 305.836 65.52C304.396 69.0667 302.356 72.1467 299.716 74.76C297.076 77.3467 293.89 79.3734 290.156 80.84C286.45 82.28 282.33 83 277.796 83H255.156V24.72H277.796C282.33 24.72 286.45 25.4534 290.156 26.92C293.89 28.3867 297.076 30.4133 299.716 33C302.356 35.5867 304.396 38.6667 305.836 42.24C307.303 45.7867 308.036 49.6534 308.036 53.84ZM294.196 53.84C294.196 50.96 293.823 48.36 293.076 46.04C292.33 43.72 291.25 41.76 289.836 40.16C288.45 38.5333 286.743 37.2933 284.716 36.44C282.69 35.56 280.383 35.12 277.796 35.12H268.756V72.6H277.796C280.383 72.6 282.69 72.1734 284.716 71.32C286.743 70.44 288.45 69.2 289.836 67.6C291.25 65.9734 292.33 64 293.076 61.68C293.823 59.36 294.196 56.7467 294.196 53.84Z" fill="#EDEDED"/>
<path d="M372.051 53.84C372.051 58.0534 371.318 61.9734 369.851 65.6C368.411 69.2267 366.371 72.3867 363.731 75.08C361.091 77.7467 357.905 79.84 354.171 81.36C350.465 82.88 346.345 83.64 341.811 83.64C337.278 83.64 333.145 82.88 329.411 81.36C325.678 79.84 322.478 77.7467 319.811 75.08C317.171 72.3867 315.118 69.2267 313.651 65.6C312.211 61.9734 311.491 58.0534 311.491 53.84C311.491 49.6267 312.211 45.7067 313.651 42.08C315.118 38.4533 317.171 35.3067 319.811 32.64C322.478 29.9733 325.678 27.88 329.411 26.36C333.145 24.84 337.278 24.08 341.811 24.08C346.345 24.08 350.465 24.8534 354.171 26.4C357.905 27.92 361.091 30.0134 363.731 32.68C366.371 35.3467 368.411 38.4934 369.851 42.12C371.318 45.7467 372.051 49.6534 372.051 53.84ZM358.211 53.84C358.211 50.96 357.838 48.3734 357.091 46.08C356.345 43.76 355.265 41.8 353.851 40.2C352.465 38.6 350.758 37.3734 348.731 36.52C346.705 35.6667 344.398 35.24 341.811 35.24C339.198 35.24 336.865 35.6667 334.811 36.52C332.785 37.3734 331.065 38.6 329.651 40.2C328.265 41.8 327.198 43.76 326.451 46.08C325.705 48.3734 325.331 50.96 325.331 53.84C325.331 56.7467 325.705 59.36 326.451 61.68C327.198 63.9733 328.265 65.92 329.651 67.52C331.065 69.12 332.785 70.3467 334.811 71.2C336.865 72.0267 339.198 72.44 341.811 72.44C344.398 72.44 346.705 72.0267 348.731 71.2C350.758 70.3467 352.465 69.12 353.851 67.52C355.265 65.92 356.345 63.9733 357.091 61.68C357.838 59.36 358.211 56.7467 358.211 53.84Z" fill="#EDEDED"/>
<path d="M374.116 24.72H385.476C386.649 24.72 387.622 24.9867 388.396 25.52C389.196 26.0534 389.716 26.76 389.956 27.64L397.956 58.04C398.222 59.0267 398.489 60.08 398.756 61.2C399.022 62.32 399.222 63.4933 399.356 64.72C399.622 63.4667 399.916 62.2934 400.236 61.2C400.556 60.08 400.862 59.0267 401.156 58.04L410.596 27.64C410.836 26.8933 411.342 26.2267 412.116 25.64C412.916 25.0267 413.876 24.72 414.996 24.72H418.996C420.169 24.72 421.129 24.9867 421.876 25.52C422.649 26.0267 423.182 26.7333 423.476 27.64L432.836 58.04C433.129 58.9734 433.436 59.9733 433.756 61.04C434.076 62.08 434.356 63.2 434.596 64.4C434.809 63.2267 435.022 62.1067 435.236 61.04C435.476 59.9733 435.716 58.9734 435.956 58.04L443.956 27.64C444.169 26.8667 444.676 26.1867 445.476 25.6C446.276 25.0134 447.236 24.72 448.356 24.72H458.996L440.996 83H428.756L417.796 46.88C417.609 46.32 417.409 45.7067 417.196 45.04C417.009 44.3734 416.822 43.6667 416.636 42.92C416.449 43.6667 416.249 44.3734 416.036 45.04C415.849 45.7067 415.662 46.32 415.476 46.88L404.356 83H392.116L374.116 24.72Z" fill="#EDEDED"/>
<path d="M471.339 24.72C471.925 24.72 472.419 24.7467 472.819 24.8C473.219 24.8534 473.579 24.96 473.899 25.12C474.219 25.2534 474.525 25.4534 474.819 25.72C475.112 25.9867 475.445 26.3467 475.819 26.8L503.499 61.8C503.392 60.68 503.312 59.6 503.259 58.56C503.205 57.4934 503.179 56.4934 503.179 55.56V24.72H515.099V83H508.059C507.019 83 506.139 82.84 505.419 82.52C504.699 82.2 504.005 81.6134 503.339 80.76L475.859 46.04C475.939 47.0533 476.005 48.0533 476.059 49.04C476.112 50 476.139 50.9067 476.139 51.76V83H464.219V24.72H471.339Z" fill="#EDEDED"/>
<path d="M539.487 83H525.887V24.72H539.487V83Z" fill="#EDEDED"/>
<path d="M563.833 48.32H565.992C567.992 48.32 569.433 47.6934 570.312 46.44L583.432 27.4C584.152 26.36 584.966 25.6534 585.872 25.28C586.806 24.9067 587.939 24.72 589.272 24.72H601.032L583.752 48.28C583.139 49.1334 582.499 49.84 581.833 50.4C581.166 50.96 580.486 51.4267 579.792 51.8C580.806 52.1734 581.726 52.6933 582.552 53.36C583.406 54 584.179 54.8667 584.872 55.96L602.472 83H590.392C589.619 83 588.952 82.9467 588.392 82.84C587.859 82.7334 587.392 82.5733 586.992 82.36C586.592 82.1467 586.246 81.8934 585.953 81.6C585.659 81.28 585.379 80.92 585.112 80.52L571.912 60.24C571.432 59.4934 570.819 58.9733 570.073 58.68C569.353 58.36 568.366 58.2 567.112 58.2H563.833V83H550.312V24.72H563.833V48.32Z" fill="#EDEDED"/>
<path d="M571.958 5.973V8.921H567.448V22H563.73V8.921H559.22V5.973H571.958ZM588.032 13.981C588.032 15.1397 587.83 16.2103 587.427 17.193C587.031 18.1683 586.47 19.0153 585.744 19.734C585.018 20.4453 584.142 21.0027 583.115 21.406C582.096 21.802 580.963 22 579.716 22H573.49V5.973H579.716C580.963 5.973 582.096 6.17467 583.115 6.578C584.142 6.98133 585.018 7.53867 585.744 8.25C586.47 8.96133 587.031 9.80833 587.427 10.791C587.83 11.7663 588.032 12.8297 588.032 13.981ZM584.226 13.981C584.226 13.189 584.123 12.474 583.918 11.836C583.713 11.198 583.416 10.659 583.027 10.219C582.646 9.77167 582.176 9.43067 581.619 9.196C581.062 8.954 580.427 8.833 579.716 8.833H577.23V19.14H579.716C580.427 19.14 581.062 19.0227 581.619 18.788C582.176 18.546 582.646 18.205 583.027 17.765C583.416 17.3177 583.713 16.775 583.918 16.137C584.123 15.499 584.226 14.7803 584.226 13.981ZM595.12 5.797C595.912 5.797 596.623 5.91433 597.254 6.149C597.892 6.37633 598.435 6.69533 598.882 7.106C599.329 7.51667 599.67 8.008 599.905 8.58C600.147 9.14467 600.268 9.768 600.268 10.45C600.268 11.0367 600.184 11.5793 600.015 12.078C599.854 12.5767 599.63 13.0533 599.344 13.508C599.058 13.9553 598.724 14.3917 598.343 14.817C597.969 15.235 597.569 15.6603 597.144 16.093L594.009 19.305C594.412 19.1877 594.808 19.096 595.197 19.03C595.593 18.9567 595.963 18.92 596.308 18.92H599.3C599.667 18.92 599.956 19.0227 600.169 19.228C600.382 19.426 600.488 19.69 600.488 20.02V22H589.224V20.9C589.224 20.6873 589.268 20.46 589.356 20.218C589.444 19.976 589.598 19.756 589.818 19.558L594.438 14.905C594.834 14.509 595.179 14.1313 595.472 13.772C595.765 13.4127 596.007 13.0607 596.198 12.716C596.389 12.364 596.532 12.0157 596.627 11.671C596.722 11.319 596.77 10.9487 596.77 10.56C596.77 9.922 596.616 9.43433 596.308 9.097C596.007 8.75233 595.545 8.58 594.922 8.58C594.665 8.58 594.431 8.61667 594.218 8.69C594.005 8.76333 593.815 8.86233 593.646 8.987C593.477 9.11167 593.331 9.25833 593.206 9.427C593.089 9.59567 592.993 9.779 592.92 9.977C592.803 10.307 592.652 10.5453 592.469 10.692C592.293 10.8387 592.051 10.912 591.743 10.912C591.67 10.912 591.589 10.9083 591.501 10.901C591.42 10.8937 591.336 10.8827 591.248 10.868L589.444 10.549C589.561 9.74967 589.785 9.053 590.115 8.459C590.452 7.865 590.867 7.37 591.358 6.974C591.857 6.578 592.425 6.28467 593.063 6.094C593.701 5.896 594.387 5.797 595.12 5.797Z" fill="#FFD600"/>
</svg>
