<?xml version="1.0" standalone="no"?>
<!DOCTYPE svg PUBLIC "-//W3C//DTD SVG 20010904//EN"
 "http://www.w3.org/TR/2001/REC-SVG-20010904/DTD/svg10.dtd">
<svg version="1.0" xmlns="http://www.w3.org/2000/svg"
 width="700.000000pt" height="700.000000pt" viewBox="0 0 700.000000 700.000000"
 preserveAspectRatio="xMidYMid meet">
<metadata>
Created by potrace 1.14, written by Peter Selinger 2001-2017
</metadata>
<g transform="translate(0.000000,700.000000) scale(0.100000,-0.100000)"
fill="#000000" stroke="none">
<path d="M3220 6994 c-182 -20 -243 -29 -360 -50 -1015 -183 -1909 -826 -2421
-1741 -214 -381 -346 -781 -416 -1258 -25 -173 -25 -717 0 -890 70 -477 202
-877 417 -1260 280 -500 668 -916 1145 -1227 448 -292 919 -467 1465 -544 182
-25 598 -30 800 -9 815 84 1548 432 2125 1010 579 578 923 1303 1011 2127 22
212 15 635 -15 828 -72 467 -199 848 -410 1223 -499 892 -1352 1520 -2344
1726 -253 53 -358 63 -672 66 -159 2 -306 1 -325 -1z m775 -1122 c963 -154
1452 -722 1403 -1629 -35 -640 -367 -1094 -963 -1318 -296 -111 -566 -145
-1147 -145 l-338 0 0 -437 c0 -473 -8 -624 -40 -748 -29 -116 -88 -230 -152
-292 l-53 -52 -118 49 c-226 93 -490 250 -652 387 l-70 59 -3 1786 -2 1786 67
57 c219 183 541 357 848 458 213 70 177 66 655 63 382 -3 451 -6 565 -24z"/>
<path d="M2950 4344 l0 -745 393 4 c439 4 465 8 612 77 132 62 214 143 280
275 58 118 79 225 79 405 0 131 -3 167 -22 235 -34 116 -86 208 -162 284 -76
77 -149 122 -252 158 -133 46 -197 52 -575 53 l-353 0 0 -746z"/>
</g>
</svg>
