<svg width="603" height="77" viewBox="0 0 603 77" fill="none" xmlns="http://www.w3.org/2000/svg">
<path d="M13.52 56.52C13.52 56.52 13.52 63.5 13.52 67.5C13.52 71.5 12.2001 76.64 6.76006 76.64C1.32005 76.64 6.10352e-05 76.64 6.10352e-05 76.64L0 17.72H20.56C24.6667 17.72 28.1867 18.2134 31.12 19.2C34.08 20.16 36.5067 21.4933 38.4 23.2C40.32 24.9067 41.7333 26.92 42.64 29.24C43.5467 31.56 44 34.0667 44 36.76C44 39.6667 43.5333 42.3334 42.6 44.76C41.6667 47.1867 40.24 49.2667 38.32 51C36.4 52.7334 33.96 54.0934 31 55.08C28.0667 56.04 24.5867 56.52 20.56 56.52H13.52ZM13.52 46.32H20.56C24.08 46.32 26.6133 45.48 28.16 43.8C29.7067 42.12 30.48 39.7734 30.48 36.76C30.48 35.4267 30.28 34.2134 29.88 33.12C29.48 32.0267 28.8667 31.0933 28.04 30.32C27.24 29.52 26.2133 28.9067 24.96 28.48C23.7333 28.0533 22.2667 27.84 20.56 27.84H13.52V46.32Z" fill="#FFD600"/>
<path d="M108.536 46.84C108.536 51.0534 107.802 54.9734 106.336 58.6C104.896 62.2267 102.856 65.3867 100.216 68.08C97.5756 70.7467 94.389 72.84 90.6556 74.36C86.949 75.88 82.829 76.64 78.2956 76.64C73.7623 76.64 69.629 75.88 65.8956 74.36C62.1623 72.84 58.9623 70.7467 56.2956 68.08C53.6556 65.3867 51.6023 62.2267 50.1356 58.6C48.6956 54.9734 47.9756 51.0534 47.9756 46.84C47.9756 42.6267 48.6956 38.7067 50.1356 35.08C51.6023 31.4533 53.6556 28.3067 56.2956 25.64C58.9623 22.9733 62.1623 20.88 65.8956 19.36C69.629 17.84 73.7623 17.08 78.2956 17.08C82.829 17.08 86.949 17.8534 90.6556 19.4C94.389 20.92 97.5756 23.0134 100.216 25.68C102.856 28.3467 104.896 31.4934 106.336 35.12C107.802 38.7467 108.536 42.6534 108.536 46.84ZM94.6956 46.84C94.6956 43.96 94.3223 41.3734 93.5756 39.08C92.829 36.76 91.749 34.8 90.3356 33.2C88.949 31.6 87.2423 30.3734 85.2156 29.52C83.189 28.6667 80.8823 28.24 78.2956 28.24C75.6823 28.24 73.349 28.6667 71.2956 29.52C69.269 30.3734 67.549 31.6 66.1356 33.2C64.749 34.8 63.6823 36.76 62.9356 39.08C62.189 41.3734 61.8156 43.96 61.8156 46.84C61.8156 49.7467 62.189 52.36 62.9356 54.68C63.6823 56.9733 64.749 58.92 66.1356 60.52C67.549 62.12 69.269 63.3467 71.2956 64.2C73.349 65.0267 75.6823 65.44 78.2956 65.44C80.8823 65.44 83.189 65.0267 85.2156 64.2C87.2423 63.3467 88.949 62.12 90.3356 60.52C91.749 58.92 92.829 56.9733 93.5756 54.68C94.3223 52.36 94.6956 49.7467 94.6956 46.84Z" fill="#FFD600"/>
<path d="M139.8 54.88C139.8 58.1334 139.387 61.0934 138.56 63.76C137.76 66.4267 136.533 68.72 134.88 70.64C133.253 72.5333 131.2 74.0134 128.72 75.08C126.24 76.12 123.32 76.64 119.96 76.64C118.44 76.64 116.933 76.56 115.44 76.4C113.973 76.24 112.44 75.9734 110.84 75.6L111.56 67.72C111.613 67.0267 111.88 66.4667 112.36 66.04C112.867 65.6134 113.56 65.4 114.44 65.4C114.893 65.4 115.453 65.48 116.12 65.64C116.787 65.7733 117.587 65.84 118.52 65.84C119.827 65.84 120.96 65.6667 121.92 65.32C122.907 64.9467 123.72 64.3467 124.36 63.52C125 62.6667 125.48 61.56 125.8 60.2C126.12 58.84 126.28 57.16 126.28 55.16L125.8 0H139.8H539.487V10.5H139.8V54.88Z" fill="#FFD600"/>
<path d="M201.584 76H191.104C189.93 76 188.957 75.7334 188.184 75.2C187.437 74.64 186.917 73.9334 186.624 73.08L183.184 62.92H161.024L157.584 73.08C157.317 73.8267 156.797 74.5067 156.024 75.12C155.25 75.7067 154.304 76 153.184 76H142.624L165.184 17.72H179.024L201.584 76ZM164.144 53.72H180.064L174.704 37.76C174.357 36.7467 173.944 35.56 173.464 34.2C173.01 32.8134 172.557 31.32 172.104 29.72C171.677 31.3467 171.237 32.8533 170.784 34.24C170.33 35.6267 169.904 36.8267 169.504 37.84L164.144 53.72Z" fill="#FFD600"/>
<path d="M251.04 17.72V22.6C251.04 23.2934 250.92 23.9734 250.68 24.64C250.467 25.3067 250.16 25.9334 249.76 26.52L222.4 65.6H250.16L237.772 76H205.2V70.8C205.2 70.1867 205.307 69.5867 205.52 69C205.733 68.3867 206.027 67.8267 206.4 67.32L233.84 28.12H207.44L219.272 17.72H251.04Z" fill="#FFD600"/>
<path d="M308.036 46.84C308.036 51.0534 307.303 54.9467 305.836 58.52C304.396 62.0667 302.356 65.1467 299.716 67.76C297.076 70.3467 293.89 72.3734 290.156 73.84C286.45 75.28 282.33 76 277.796 76H255.156V17.72H277.796C282.33 17.72 286.45 18.4534 290.156 19.92C293.89 21.3867 297.076 23.4133 299.716 26C302.356 28.5867 304.396 31.6667 305.836 35.24C307.303 38.7867 308.036 42.6534 308.036 46.84ZM294.196 46.84C294.196 43.96 293.823 41.36 293.076 39.04C292.33 36.72 291.25 34.76 289.836 33.16C288.45 31.5333 286.743 30.2933 284.716 29.44C282.69 28.56 280.383 28.12 277.796 28.12H268.756V65.6H277.796C280.383 65.6 282.69 65.1734 284.716 64.32C286.743 63.44 288.45 62.2 289.836 60.6C291.25 58.9734 292.33 57 293.076 54.68C293.823 52.36 294.196 49.7467 294.196 46.84Z" fill="#FFD600"/>
<path d="M372.051 46.84C372.051 51.0534 371.318 54.9734 369.851 58.6C368.411 62.2267 366.371 65.3867 363.731 68.08C361.091 70.7467 357.905 72.84 354.171 74.36C350.465 75.88 346.345 76.64 341.811 76.64C337.278 76.64 333.145 75.88 329.411 74.36C325.678 72.84 322.478 70.7467 319.811 68.08C317.171 65.3867 315.118 62.2267 313.651 58.6C312.211 54.9734 311.491 51.0534 311.491 46.84C311.491 42.6267 312.211 38.7067 313.651 35.08C315.118 31.4533 317.171 28.3067 319.811 25.64C322.478 22.9733 325.678 20.88 329.411 19.36C333.145 17.84 337.278 17.08 341.811 17.08C346.345 17.08 350.465 17.8534 354.171 19.4C357.905 20.92 361.091 23.0134 363.731 25.68C366.371 28.3467 368.411 31.4934 369.851 35.12C371.318 38.7467 372.051 42.6534 372.051 46.84ZM358.211 46.84C358.211 43.96 357.838 41.3734 357.091 39.08C356.345 36.76 355.265 34.8 353.851 33.2C352.465 31.6 350.758 30.3734 348.731 29.52C346.705 28.6667 344.398 28.24 341.811 28.24C339.198 28.24 336.865 28.6667 334.811 29.52C332.785 30.3734 331.065 31.6 329.651 33.2C328.265 34.8 327.198 36.76 326.451 39.08C325.705 41.3734 325.331 43.96 325.331 46.84C325.331 49.7467 325.705 52.36 326.451 54.68C327.198 56.9733 328.265 58.92 329.651 60.52C331.065 62.12 332.785 63.3467 334.811 64.2C336.865 65.0267 339.198 65.44 341.811 65.44C344.398 65.44 346.705 65.0267 348.731 64.2C350.758 63.3467 352.465 62.12 353.851 60.52C355.265 58.92 356.345 56.9733 357.091 54.68C357.838 52.36 358.211 49.7467 358.211 46.84Z" fill="#FFD600"/>
<path d="M374.116 17.72H385.476C386.649 17.72 387.622 17.9867 388.396 18.52C389.196 19.0534 389.716 19.76 389.956 20.64L397.956 51.04C398.222 52.0267 398.489 53.08 398.756 54.2C399.022 55.32 399.222 56.4933 399.356 57.72C399.622 56.4667 399.916 55.2934 400.236 54.2C400.556 53.08 400.862 52.0267 401.156 51.04L410.596 20.64C410.836 19.8933 411.342 19.2267 412.116 18.64C412.916 18.0267 413.876 17.72 414.996 17.72H418.996C420.169 17.72 421.129 17.9867 421.876 18.52C422.649 19.0267 423.182 19.7333 423.476 20.64L432.836 51.04C433.129 51.9734 433.436 52.9733 433.756 54.04C434.076 55.08 434.356 56.2 434.596 57.4C434.809 56.2267 435.022 55.1067 435.236 54.04C435.476 52.9733 435.716 51.9734 435.956 51.04L443.956 20.64C444.169 19.8667 444.676 19.1867 445.476 18.6C446.276 18.0134 447.236 17.72 448.356 17.72H458.996L440.996 76H428.756L417.796 39.88C417.609 39.32 417.409 38.7067 417.196 38.04C417.009 37.3734 416.822 36.6667 416.636 35.92C416.449 36.6667 416.249 37.3734 416.036 38.04C415.849 38.7067 415.662 39.32 415.476 39.88L404.356 76H392.116L374.116 17.72Z" fill="#FFD600"/>
<path d="M471.339 17.72C471.925 17.72 472.419 17.7467 472.819 17.8C473.219 17.8534 473.579 17.96 473.899 18.12C474.219 18.2534 474.525 18.4534 474.819 18.72C475.112 18.9867 475.445 19.3467 475.819 19.8L503.499 54.8C503.392 53.68 503.312 52.6 503.259 51.56C503.205 50.4934 503.179 49.4934 503.179 48.56V17.72H515.099V76H508.059C507.019 76 506.139 75.84 505.419 75.52C504.699 75.2 504.005 74.6134 503.339 73.76L475.859 39.04C475.939 40.0533 476.005 41.0533 476.059 42.04C476.112 43 476.139 43.9067 476.139 44.76V76H464.219V17.72H471.339Z" fill="#FFD600"/>
<path d="M539.487 76H525.887V17.72H539.487V76Z" fill="#FFD600"/>
<path d="M563.833 41.32H565.992C567.992 41.32 569.433 40.6934 570.312 39.44L583.432 20.4C584.152 19.36 584.966 18.6534 585.872 18.28C586.806 17.9067 587.939 17.72 589.272 17.72H601.032L583.752 41.28C583.139 42.1334 582.499 42.84 581.833 43.4C581.166 43.96 580.486 44.4267 579.792 44.8C580.806 45.1734 581.726 45.6933 582.552 46.36C583.406 47 584.179 47.8667 584.872 48.96L602.472 76H590.392C589.619 76 588.952 75.9467 588.392 75.84C587.859 75.7334 587.392 75.5733 586.992 75.36C586.592 75.1467 586.246 74.8934 585.953 74.6C585.659 74.28 585.379 73.92 585.112 73.52L571.912 53.24C571.432 52.4934 570.819 51.9733 570.073 51.68C569.353 51.36 568.366 51.2 567.112 51.2H563.833V76H550.312V17.72H563.833V41.32Z" fill="#FFD600"/>
</svg>
