<svg width="603" height="84" viewBox="0 0 603 84" fill="none" xmlns="http://www.w3.org/2000/svg">
<path d="M13.52 63.52C13.52 63.52 13.52 70.5 13.52 74.5C13.52 78.5 12.2001 83.64 6.76006 83.64C1.32005 83.64 6.10352e-05 83.64 6.10352e-05 83.64L0 24.72H20.56C24.6667 24.72 28.1867 25.2134 31.12 26.2C34.08 27.16 36.5067 28.4933 38.4 30.2C40.32 31.9067 41.7333 33.92 42.64 36.24C43.5467 38.56 44 41.0667 44 43.76C44 46.6667 43.5333 49.3334 42.6 51.76C41.6667 54.1867 40.24 56.2667 38.32 58C36.4 59.7334 33.96 61.0934 31 62.08C28.0667 63.04 24.5867 63.52 20.56 63.52H13.52ZM13.52 53.32H20.56C24.08 53.32 26.6133 52.48 28.16 50.8C29.7067 49.12 30.48 46.7734 30.48 43.76C30.48 42.4267 30.28 41.2134 29.88 40.12C29.48 39.0267 28.8667 38.0933 28.04 37.32C27.24 36.52 26.2133 35.9067 24.96 35.48C23.7333 35.0533 22.2667 34.84 20.56 34.84H13.52V53.32Z" fill="#FFD600"/>
<path d="M108.536 53.84C108.536 58.0534 107.802 61.9734 106.336 65.6C104.896 69.2267 102.856 72.3867 100.216 75.08C97.5756 77.7467 94.389 79.84 90.6556 81.36C86.949 82.88 82.829 83.64 78.2956 83.64C73.7623 83.64 69.629 82.88 65.8956 81.36C62.1623 79.84 58.9623 77.7467 56.2956 75.08C53.6556 72.3867 51.6023 69.2267 50.1356 65.6C48.6956 61.9734 47.9756 58.0534 47.9756 53.84C47.9756 49.6267 48.6956 45.7067 50.1356 42.08C51.6023 38.4533 53.6556 35.3067 56.2956 32.64C58.9623 29.9733 62.1623 27.88 65.8956 26.36C69.629 24.84 73.7623 24.08 78.2956 24.08C82.829 24.08 86.949 24.8534 90.6556 26.4C94.389 27.92 97.5756 30.0134 100.216 32.68C102.856 35.3467 104.896 38.4934 106.336 42.12C107.802 45.7467 108.536 49.6534 108.536 53.84ZM94.6956 53.84C94.6956 50.96 94.3223 48.3734 93.5756 46.08C92.829 43.76 91.749 41.8 90.3356 40.2C88.949 38.6 87.2423 37.3734 85.2156 36.52C83.189 35.6667 80.8823 35.24 78.2956 35.24C75.6823 35.24 73.349 35.6667 71.2956 36.52C69.269 37.3734 67.549 38.6 66.1356 40.2C64.749 41.8 63.6823 43.76 62.9356 46.08C62.189 48.3734 61.8156 50.96 61.8156 53.84C61.8156 56.7467 62.189 59.36 62.9356 61.68C63.6823 63.9733 64.749 65.92 66.1356 67.52C67.549 69.12 69.269 70.3467 71.2956 71.2C73.349 72.0267 75.6823 72.44 78.2956 72.44C80.8823 72.44 83.189 72.0267 85.2156 71.2C87.2423 70.3467 88.949 69.12 90.3356 67.52C91.749 65.92 92.829 63.9733 93.5756 61.68C94.3223 59.36 94.6956 56.7467 94.6956 53.84Z" fill="#FFD600"/>
<path d="M139.8 61.88C139.8 65.1334 139.387 68.0934 138.56 70.76C137.76 73.4267 136.533 75.72 134.88 77.64C133.253 79.5333 131.2 81.0134 128.72 82.08C126.24 83.12 123.32 83.64 119.96 83.64C118.44 83.64 116.933 83.56 115.44 83.4C113.973 83.24 112.44 82.9734 110.84 82.6L111.56 74.72C111.613 74.0267 111.88 73.4667 112.36 73.04C112.867 72.6134 113.56 72.4 114.44 72.4C114.893 72.4 115.453 72.48 116.12 72.64C116.787 72.7733 117.587 72.84 118.52 72.84C119.827 72.84 120.96 72.6667 121.92 72.32C122.907 71.9467 123.72 71.3467 124.36 70.52C125 69.6667 125.48 68.56 125.8 67.2C126.12 65.84 126.28 64.16 126.28 62.16L125.8 7H139.8H539.487V17.5H139.8V61.88Z" fill="#FFD600"/>
<path d="M201.584 83H191.104C189.93 83 188.957 82.7334 188.184 82.2C187.437 81.64 186.917 80.9334 186.624 80.08L183.184 69.92H161.024L157.584 80.08C157.317 80.8267 156.797 81.5067 156.024 82.12C155.25 82.7067 154.304 83 153.184 83H142.624L165.184 24.72H179.024L201.584 83ZM164.144 60.72H180.064L174.704 44.76C174.357 43.7467 173.944 42.56 173.464 41.2C173.01 39.8134 172.557 38.32 172.104 36.72C171.677 38.3467 171.237 39.8533 170.784 41.24C170.33 42.6267 169.904 43.8267 169.504 44.84L164.144 60.72Z" fill="#FFD600"/>
<path d="M251.04 24.72V29.6C251.04 30.2934 250.92 30.9734 250.68 31.64C250.467 32.3067 250.16 32.9334 249.76 33.52L222.4 72.6H250.16L237.772 83H205.2V77.8C205.2 77.1867 205.307 76.5867 205.52 76C205.733 75.3867 206.027 74.8267 206.4 74.32L233.84 35.12H207.44L219.272 24.72H251.04Z" fill="#FFD600"/>
<path d="M308.036 53.84C308.036 58.0534 307.303 61.9467 305.836 65.52C304.396 69.0667 302.356 72.1467 299.716 74.76C297.076 77.3467 293.89 79.3734 290.156 80.84C286.45 82.28 282.33 83 277.796 83H255.156V24.72H277.796C282.33 24.72 286.45 25.4534 290.156 26.92C293.89 28.3867 297.076 30.4133 299.716 33C302.356 35.5867 304.396 38.6667 305.836 42.24C307.303 45.7867 308.036 49.6534 308.036 53.84ZM294.196 53.84C294.196 50.96 293.823 48.36 293.076 46.04C292.33 43.72 291.25 41.76 289.836 40.16C288.45 38.5333 286.743 37.2933 284.716 36.44C282.69 35.56 280.383 35.12 277.796 35.12H268.756V72.6H277.796C280.383 72.6 282.69 72.1734 284.716 71.32C286.743 70.44 288.45 69.2 289.836 67.6C291.25 65.9734 292.33 64 293.076 61.68C293.823 59.36 294.196 56.7467 294.196 53.84Z" fill="#FFD600"/>
<path d="M372.051 53.84C372.051 58.0534 371.318 61.9734 369.851 65.6C368.411 69.2267 366.371 72.3867 363.731 75.08C361.091 77.7467 357.905 79.84 354.171 81.36C350.465 82.88 346.345 83.64 341.811 83.64C337.278 83.64 333.145 82.88 329.411 81.36C325.678 79.84 322.478 77.7467 319.811 75.08C317.171 72.3867 315.118 69.2267 313.651 65.6C312.211 61.9734 311.491 58.0534 311.491 53.84C311.491 49.6267 312.211 45.7067 313.651 42.08C315.118 38.4533 317.171 35.3067 319.811 32.64C322.478 29.9733 325.678 27.88 329.411 26.36C333.145 24.84 337.278 24.08 341.811 24.08C346.345 24.08 350.465 24.8534 354.171 26.4C357.905 27.92 361.091 30.0134 363.731 32.68C366.371 35.3467 368.411 38.4934 369.851 42.12C371.318 45.7467 372.051 49.6534 372.051 53.84ZM358.211 53.84C358.211 50.96 357.838 48.3734 357.091 46.08C356.345 43.76 355.265 41.8 353.851 40.2C352.465 38.6 350.758 37.3734 348.731 36.52C346.705 35.6667 344.398 35.24 341.811 35.24C339.198 35.24 336.865 35.6667 334.811 36.52C332.785 37.3734 331.065 38.6 329.651 40.2C328.265 41.8 327.198 43.76 326.451 46.08C325.705 48.3734 325.331 50.96 325.331 53.84C325.331 56.7467 325.705 59.36 326.451 61.68C327.198 63.9733 328.265 65.92 329.651 67.52C331.065 69.12 332.785 70.3467 334.811 71.2C336.865 72.0267 339.198 72.44 341.811 72.44C344.398 72.44 346.705 72.0267 348.731 71.2C350.758 70.3467 352.465 69.12 353.851 67.52C355.265 65.92 356.345 63.9733 357.091 61.68C357.838 59.36 358.211 56.7467 358.211 53.84Z" fill="#FFD600"/>
<path d="M374.116 24.72H385.476C386.649 24.72 387.622 24.9867 388.396 25.52C389.196 26.0534 389.716 26.76 389.956 27.64L397.956 58.04C398.222 59.0267 398.489 60.08 398.756 61.2C399.022 62.32 399.222 63.4933 399.356 64.72C399.622 63.4667 399.916 62.2934 400.236 61.2C400.556 60.08 400.862 59.0267 401.156 58.04L410.596 27.64C410.836 26.8933 411.342 26.2267 412.116 25.64C412.916 25.0267 413.876 24.72 414.996 24.72H418.996C420.169 24.72 421.129 24.9867 421.876 25.52C422.649 26.0267 423.182 26.7333 423.476 27.64L432.836 58.04C433.129 58.9734 433.436 59.9733 433.756 61.04C434.076 62.08 434.356 63.2 434.596 64.4C434.809 63.2267 435.022 62.1067 435.236 61.04C435.476 59.9733 435.716 58.9734 435.956 58.04L443.956 27.64C444.169 26.8667 444.676 26.1867 445.476 25.6C446.276 25.0134 447.236 24.72 448.356 24.72H458.996L440.996 83H428.756L417.796 46.88C417.609 46.32 417.409 45.7067 417.196 45.04C417.009 44.3734 416.822 43.6667 416.636 42.92C416.449 43.6667 416.249 44.3734 416.036 45.04C415.849 45.7067 415.662 46.32 415.476 46.88L404.356 83H392.116L374.116 24.72Z" fill="#FFD600"/>
<path d="M471.339 24.72C471.925 24.72 472.419 24.7467 472.819 24.8C473.219 24.8534 473.579 24.96 473.899 25.12C474.219 25.2534 474.525 25.4534 474.819 25.72C475.112 25.9867 475.445 26.3467 475.819 26.8L503.499 61.8C503.392 60.68 503.312 59.6 503.259 58.56C503.205 57.4934 503.179 56.4934 503.179 55.56V24.72H515.099V83H508.059C507.019 83 506.139 82.84 505.419 82.52C504.699 82.2 504.005 81.6134 503.339 80.76L475.859 46.04C475.939 47.0533 476.005 48.0533 476.059 49.04C476.112 50 476.139 50.9067 476.139 51.76V83H464.219V24.72H471.339Z" fill="#FFD600"/>
<path d="M539.487 83H525.887V24.72H539.487V83Z" fill="#FFD600"/>
<path d="M563.833 48.32H565.992C567.992 48.32 569.433 47.6934 570.312 46.44L583.432 27.4C584.152 26.36 584.966 25.6534 585.872 25.28C586.806 24.9067 587.939 24.72 589.272 24.72H601.032L583.752 48.28C583.139 49.1334 582.499 49.84 581.833 50.4C581.166 50.96 580.486 51.4267 579.792 51.8C580.806 52.1734 581.726 52.6933 582.552 53.36C583.406 54 584.179 54.8667 584.872 55.96L602.472 83H590.392C589.619 83 588.952 82.9467 588.392 82.84C587.859 82.7334 587.392 82.5733 586.992 82.36C586.592 82.1467 586.246 81.8934 585.953 81.6C585.659 81.28 585.379 80.92 585.112 80.52L571.912 60.24C571.432 59.4934 570.819 58.9733 570.073 58.68C569.353 58.36 568.366 58.2 567.112 58.2H563.833V83H550.312V24.72H563.833V48.32Z" fill="#FFD600"/>
<path d="M571.958 5.973V8.921H567.448V22H563.73V8.921H559.22V5.973H571.958ZM588.032 13.981C588.032 15.1397 587.83 16.2103 587.427 17.193C587.031 18.1683 586.47 19.0153 585.744 19.734C585.018 20.4453 584.142 21.0027 583.115 21.406C582.096 21.802 580.963 22 579.716 22H573.49V5.973H579.716C580.963 5.973 582.096 6.17467 583.115 6.578C584.142 6.98133 585.018 7.53867 585.744 8.25C586.47 8.96133 587.031 9.80833 587.427 10.791C587.83 11.7663 588.032 12.8297 588.032 13.981ZM584.226 13.981C584.226 13.189 584.123 12.474 583.918 11.836C583.713 11.198 583.416 10.659 583.027 10.219C582.646 9.77167 582.176 9.43067 581.619 9.196C581.062 8.954 580.427 8.833 579.716 8.833H577.23V19.14H579.716C580.427 19.14 581.062 19.0227 581.619 18.788C582.176 18.546 582.646 18.205 583.027 17.765C583.416 17.3177 583.713 16.775 583.918 16.137C584.123 15.499 584.226 14.7803 584.226 13.981ZM595.12 5.797C595.912 5.797 596.623 5.91433 597.254 6.149C597.892 6.37633 598.435 6.69533 598.882 7.106C599.329 7.51667 599.67 8.008 599.905 8.58C600.147 9.14467 600.268 9.768 600.268 10.45C600.268 11.0367 600.184 11.5793 600.015 12.078C599.854 12.5767 599.63 13.0533 599.344 13.508C599.058 13.9553 598.724 14.3917 598.343 14.817C597.969 15.235 597.569 15.6603 597.144 16.093L594.009 19.305C594.412 19.1877 594.808 19.096 595.197 19.03C595.593 18.9567 595.963 18.92 596.308 18.92H599.3C599.667 18.92 599.956 19.0227 600.169 19.228C600.382 19.426 600.488 19.69 600.488 20.02V22H589.224V20.9C589.224 20.6873 589.268 20.46 589.356 20.218C589.444 19.976 589.598 19.756 589.818 19.558L594.438 14.905C594.834 14.509 595.179 14.1313 595.472 13.772C595.765 13.4127 596.007 13.0607 596.198 12.716C596.389 12.364 596.532 12.0157 596.627 11.671C596.722 11.319 596.77 10.9487 596.77 10.56C596.77 9.922 596.616 9.43433 596.308 9.097C596.007 8.75233 595.545 8.58 594.922 8.58C594.665 8.58 594.431 8.61667 594.218 8.69C594.005 8.76333 593.815 8.86233 593.646 8.987C593.477 9.11167 593.331 9.25833 593.206 9.427C593.089 9.59567 592.993 9.779 592.92 9.977C592.803 10.307 592.652 10.5453 592.469 10.692C592.293 10.8387 592.051 10.912 591.743 10.912C591.67 10.912 591.589 10.9083 591.501 10.901C591.42 10.8937 591.336 10.8827 591.248 10.868L589.444 10.549C589.561 9.74967 589.785 9.053 590.115 8.459C590.452 7.865 590.867 7.37 591.358 6.974C591.857 6.578 592.425 6.28467 593.063 6.094C593.701 5.896 594.387 5.797 595.12 5.797Z" fill="#FFD600"/>
</svg>
